  0
SECTION
  2
HEADER
  9
$ACADVER
  1
AC1006
  9
$EXTMIN
 10
0.000000
 20
0.000000
 30
0.000000
  9
$EXTMAX
 10
420.000000
 20
206.000000
 30
0.000000
  0
ENDSEC
  0
SECTION
  2
ENTITIES
  0
POLYLINE
  8
0
 66
1
 70
1
  0
VERTEX
  8
0
 10
316.162111
 20
172.035187
 42
-0.109213
  0
VERTEX
  8
0
 10
314.838831
 20
169.891289
 42
-0.111143
  0
VERTEX
  8
0
 10
312.742668
 20
168.521355
 42
-0.105847
  0
VERTEX
  8
0
 10
310.174399
 20
168.142189
 42
-0.091049
  0
VERTEX
  8
0
 10
307.522259
 20
168.807904
 42
0.042157
  0
VERTEX
  8
0
 10
306.246358
 20
169.263926
 42
0.118174
  0
VERTEX
  8
0
 10
305.303900
 20
169.286304
 42
0.116307
  0
VERTEX
  8
0
 10
304.444694
 20
168.878560
 42
0.040164
  0
VERTEX
  8
0
 10
303.437337
 20
167.930758
 42
0.040745
  0
VERTEX
  8
0
 10
302.583475
 20
166.817111
 42
0.109014
  0
VERTEX
  8
0
 10
302.237407
 20
165.885018
 42
0.105320
  0
VERTEX
  8
0
 10
302.309842
 20
164.874117
 42
0.036548
  0
VERTEX
  8
0
 10
302.819897
 20
163.495938
 42
-0.107063
  0
VERTEX
  8
0
 10
303.356424
 20
161.029714
 42
-0.102001
  0
VERTEX
  8
0
 10
302.840492
 20
158.515553
 42
-0.105987
  0
VERTEX
  8
0
 10
301.399495
 20
156.483735
 42
-0.124848
  0
VERTEX
  8
0
 10
299.328561
 20
155.367615
 42
0.188543
  0
VERTEX
  8
0
 10
297.586332
 20
154.127464
 42
0.135519
  0
VERTEX
  8
0
 10
296.850035
 20
151.829489
 42
0.140119
  0
VERTEX
  8
0
 10
297.406083
 20
149.534888
 42
0.202410
  0
VERTEX
  8
0
 10
299.040048
 20
148.279276
 42
-0.136065
  0
VERTEX
  8
0
 10
301.110737
 20
147.076439
 42
-0.090500
  0
VERTEX
  8
0
 10
302.655559
 20
144.786936
 42
-0.088646
  0
VERTEX
  8
0
 10
303.314074
 20
142.051443
 42
-0.122338
  0
VERTEX
  8
0
 10
302.853609
 20
139.578053
 42
0.096603
  0
VERTEX
  8
0
 10
302.268357
 20
137.132747
 42
0.214207
  0
VERTEX
  8
0
 10
302.963797
 20
135.390205
 42
0.171962
  0
VERTEX
  8
0
 10
304.903214
 20
134.504399
 42
0.061682
  0
VERTEX
  8
0
 10
307.983502
 20
134.613353
 42
-0.055905
  0
VERTEX
  8
0
 10
310.974693
 20
134.753650
 42
-0.084284
  0
VERTEX
  8
0
 10
313.507833
 20
134.152522
 42
-0.100400
  0
VERTEX
  8
0
 10
315.387903
 20
132.862715
 42
-0.116026
  0
VERTEX
  8
0
 10
316.499663
 20
131.001061
 42
0.203287
  0
VERTEX
  8
0
 10
317.682110
 20
129.621021
 42
0.090411
  0
VERTEX
  8
0
 10
320.028698
 20
128.943922
 42
0.108859
  0
VERTEX
  8
0
 10
322.181286
 20
129.195357
 42
0.319681
  0
VERTEX
  8
0
 10
323.000000
 20
130.345012
 42
-0.159890
  0
VERTEX
  8
0
 10
323.628816
 20
132.261147
 42
-0.106493
  0
VERTEX
  8
0
 10
325.373963
 20
133.805453
 42
-0.090045
  0
VERTEX
  8
0
 10
327.891652
 20
134.675217
 42
-0.078635
  0
VERTEX
  8
0
 10
330.681504
 20
134.664259
 42
0.065791
  0
VERTEX
  8
0
 10
333.927381
 20
134.568537
 42
0.145657
  0
VERTEX
  8
0
 10
336.195431
 20
135.503987
 42
0.199943
  0
VERTEX
  8
0
 10
337.155814
 20
137.280300
 42
0.132896
  0
VERTEX
  8
0
 10
336.774305
 20
139.596001
 42
-0.110978
  0
VERTEX
  8
0
 10
336.269432
 20
142.006366
 42
-0.100762
  0
VERTEX
  8
0
 10
336.813759
 20
144.493925
 42
-0.098316
  0
VERTEX
  8
0
 10
338.305889
 20
146.618539
 42
-0.100133
  0
VERTEX
  8
0
 10
340.487709
 20
147.995327
 42
0.054414
  0
VERTEX
  8
0
 10
341.634656
 20
148.580885
 42
0.092285
  0
VERTEX
  8
0
 10
342.409986
 20
149.324928
 42
0.095074
  0
VERTEX
  8
0
 10
342.851327
 20
150.281283
 42
0.060771
  0
VERTEX
  8
0
 10
343.000000
 20
151.500000
 42
0.060771
  0
VERTEX
  8
0
 10
342.851327
 20
152.718717
 42
0.095074
  0
VERTEX
  8
0
 10
342.409986
 20
153.675072
 42
0.092285
  0
VERTEX
  8
0
 10
341.634656
 20
154.419115
 42
0.054414
  0
VERTEX
  8
0
 10
340.487709
 20
155.004673
 42
-0.100133
  0
VERTEX
  8
0
 10
338.305889
 20
156.381461
 42
-0.098316
  0
VERTEX
  8
0
 10
336.813759
 20
158.506075
 42
-0.100762
  0
VERTEX
  8
0
 10
336.269432
 20
160.993634
 42
-0.110978
  0
VERTEX
  8
0
 10
336.774305
 20
163.403999
 42
0.135565
  0
VERTEX
  8
0
 10
337.133335
 20
165.656824
 42
0.182037
  0
VERTEX
  8
0
 10
336.202475
 20
167.482212
 42
0.149159
  0
VERTEX
  8
0
 10
334.102808
 20
168.478282
 42
0.086267
  0
VERTEX
  8
0
 10
331.285055
 20
168.407011
 42
-0.075659
  0
VERTEX
  8
0
 10
328.610784
 20
168.282929
 42
-0.089980
  0
VERTEX
  8
0
 10
326.188674
 20
168.990293
 42
-0.094257
  0
VERTEX
  8
0
 10
324.253068
 20
170.466576
 42
-0.092245
  0
VERTEX
  8
0
 10
322.976883
 20
172.560802
 42
0.134459
  0
VERTEX
  8
0
 10
321.567893
 20
174.490692
 42
0.189683
  0
VERTEX
  8
0
 10
319.553840
 20
175.109158
 42
0.175599
  0
VERTEX
  8
0
 10
317.539407
 20
174.198357
 42
0.116291
  0
SEQEND
  0
POLYLINE
  8
0
 66
1
 70
1
  0
VERTEX
  8
0
 10
324.000000
 20
156.000000
 42
-0.137570
  0
VERTEX
  8
0
 10
325.782141
 20
152.828664
 42
-0.169424
  0
VERTEX
  8
0
 10
325.455022
 20
149.470774
 42
-0.161803
  0
VERTEX
  8
0
 10
323.077403
 20
146.936914
 42
-0.124734
  0
VERTEX
  8
0
 10
319.380196
 20
146.000000
 42
-0.085213
  0
VERTEX
  8
0
 10
317.015405
 20
146.405968
 42
-0.133279
  0
VERTEX
  8
0
 10
315.327306
 20
147.573356
 42
-0.117735
  0
VERTEX
  8
0
 10
314.328638
 20
149.557102
 42
-0.058063
  0
VERTEX
  8
0
 10
314.000000
 20
152.377555
 42
-0.128270
  0
VERTEX
  8
0
 10
314.512246
 20
154.341449
 42
-0.081611
  0
VERTEX
  8
0
 10
315.993356
 20
156.198871
 42
-0.078982
  0
VERTEX
  8
0
 10
318.048995
 20
157.537290
 42
-0.105264
  0
VERTEX
  8
0
 10
320.222506
 20
158.000000
 42
-0.084934
  0
VERTEX
  8
0
 10
321.046001
 20
157.859098
 42
-0.037019
  0
VERTEX
  8
0
 10
322.065361
 20
157.412500
 42
-0.035260
  0
VERTEX
  8
0
 10
323.103516
 20
156.765354
 42
-0.039392
  0
SEQEND
  0
POLYLINE
  8
0
 66
1
 70
1
  0
VERTEX
  8
0
 10
267.641144
 20
154.955719
 42
-0.139407
  0
VERTEX
  8
0
 10
266.230806
 20
152.209430
 42
-0.102348
  0
VERTEX
  8
0
 10
263.420830
 20
150.222980
 42
-0.093939
  0
VERTEX
  8
0
 10
259.824427
 20
149.403457
 42
-0.096219
  0
VERTEX
  8
0
 10
256.210031
 20
149.968694
 42
0.026049
  0
VERTEX
  8
0
 10
254.366375
 20
150.528696
 42
0.078592
  0
VERTEX
  8
0
 10
253.061650
 20
150.641105
 42
0.088495
  0
VERTEX
  8
0
 10
251.874565
 20
150.341217
 42
0.039035
  0
VERTEX
  8
0
 10
250.450550
 20
149.559556
 42
0.088653
  0
VERTEX
  8
0
 10
248.945185
 20
148.137683
 42
0.100867
  0
VERTEX
  8
0
 10
248.108613
 20
146.342164
 42
0.125753
  0
VERTEX
  8
0
 10
248.134245
 20
144.659591
 42
0.190194
  0
VERTEX
  8
0
 10
249.000000
 20
143.500000
 42
-0.209855
  0
VERTEX
  8
0
 10
249.803612
 20
142.334177
 42
-0.063333
  0
VERTEX
  8
0
 10
249.942854
 20
140.137793
 42
-0.054446
  0
VERTEX
  8
0
 10
249.483909
 20
137.495398
 42
-0.049163
  0
VERTEX
  8
0
 10
248.456938
 20
134.916728
 42
-0.048232
  0
VERTEX
  8
0
 10
247.602372
 20
133.594103
 42
-0.057407
  0
VERTEX
  8
0
 10
246.553056
 20
132.543356
 42
-0.059615
  0
VERTEX
  8
0
 10
245.328768
 20
131.788858
 42
-0.059022
  0
VERTEX
  8
0
 10
243.956938
 20
131.341388
 42
0.039930
  0
VERTEX
  8
0
 10
242.299006
 20
130.869640
 42
0.158197
  0
VERTEX
  8
0
 10
241.479720
 20
130.219459
 42
0.125746
  0
VERTEX
  8
0
 10
241.095828
 20
129.120250
 42
0.021459
  0
VERTEX
  8
0
 10
241.000000
 20
126.888420
 42
0.027208
  0
VERTEX
  8
0
 10
241.120118
 20
124.682687
 42
0.114487
  0
VERTEX
  8
0
 10
241.555454
 20
123.439319
 42
0.121084
  0
VERTEX
  8
0
 10
242.480034
 20
122.551653
 42
0.032075
  0
VERTEX
  8
0
 10
244.327729
 20
121.636426
 42
-0.091496
  0
VERTEX
  8
0
 10
247.200616
 20
119.761326
 42
-0.104274
  0
VERTEX
  8
0
 10
249.058516
 20
117.058723
 42
-0.101962
  0
VERTEX
  8
0
 10
249.692244
 20
113.785340
 42
-0.083944
  0
VERTEX
  8
0
 10
249.055907
 20
110.278062
 42
0.022901
  0
VERTEX
  8
0
 10
248.388797
 20
108.130470
 42
0.118343
  0
VERTEX
  8
0
 10
248.364349
 20
106.895657
 42
0.119447
  0
VERTEX
  8
0
 10
248.903278
 20
105.790060
 42
0.023521
  0
VERTEX
  8
0
 10
250.400276
 20
104.145179
 42
0.020222
  0
VERTEX
  8
0
 10
251.908028
 20
102.754690
 42
0.103518
  0
VERTEX
  8
0
 10
252.903022
 20
102.213419
 42
0.152414
  0
VERTEX
  8
0
 10
253.831719
 20
102.223243
 42
0.061369
  0
VERTEX
  8
0
 10
254.994602
 20
102.764556
 42
-0.127474
  0
VERTEX
  8
0
 10
258.482209
 20
103.861256
 42
-0.101395
  0
VERTEX
  8
0
 10
262.397129
 20
103.265508
 42
-0.100207
  0
VERTEX
  8
0
 10
265.799381
 20
101.166152
 42
-0.121279
  0
VERTEX
  8
0
 10
267.839563
 20
98.030385
 42
0.039173
  0
VERTEX
  8
0
 10
268.571824
 20
96.362665
 42
0.133893
  0
VERTEX
  8
0
 10
269.379235
 20
95.510171
 42
0.113045
  0
VERTEX
  8
0
 10
270.589814
 20
95.107365
 42
0.024025
  0
VERTEX
  8
0
 10
272.822980
 20
95.000000
 42
0.020657
  0
VERTEX
  8
0
 10
275.102683
 20
95.094226
 42
0.124857
  0
VERTEX
  8
0
 10
276.213161
 20
95.475892
 42
0.159689
  0
VERTEX
  8
0
 10
276.867392
 20
96.293889
 42
0.040151
  0
VERTEX
  8
0
 10
277.341388
 20
97.956938
 42
-0.149143
  0
VERTEX
  8
0
 10
279.010807
 20
101.060570
 42
-0.104976
  0
VERTEX
  8
0
 10
282.365449
 20
103.220302
 42
-0.101466
  0
VERTEX
  8
0
 10
286.412384
 20
103.875815
 42
-0.129871
  0
VERTEX
  8
0
 10
290.005398
 20
102.764556
 42
0.061369
  0
VERTEX
  8
0
 10
291.168281
 20
102.223243
 42
0.152414
  0
VERTEX
  8
0
 10
292.096978
 20
102.213419
 42
0.103518
  0
VERTEX
  8
0
 10
293.091972
 20
102.754690
 42
0.020222
  0
VERTEX
  8
0
 10
294.599724
 20
104.145179
 42
0.023521
  0
VERTEX
  8
0
 10
296.096722
 20
105.790060
 42
0.119447
  0
VERTEX
  8
0
 10
296.635651
 20
106.895657
 42
0.118343
  0
VERTEX
  8
0
 10
296.611203
 20
108.130470
 42
0.022901
  0
VERTEX
  8
0
 10
295.944093
 20
110.278062
 42
-0.083944
  0
VERTEX
  8
0
 10
295.307756
 20
113.785340
 42
-0.101962
  0
VERTEX
  8
0
 10
295.941484
 20
117.058723
 42
-0.104274
  0
VERTEX
  8
0
 10
297.799384
 20
119.761326
 42
-0.091496
  0
VERTEX
  8
0
 10
300.672271
 20
121.636426
 42
0.032075
  0
VERTEX
  8
0
 10
302.519966
 20
122.551653
 42
0.121084
  0
VERTEX
  8
0
 10
303.444546
 20
123.439319
 42
0.114487
  0
VERTEX
  8
0
 10
303.879882
 20
124.682687
 42
0.027208
  0
VERTEX
  8
0
 10
304.000000
 20
126.888420
 42
0.021525
  0
VERTEX
  8
0
 10
303.903230
 20
129.135269
 42
0.128643
  0
VERTEX
  8
0
 10
303.513495
 20
130.230184
 42
0.157863
  0
VERTEX
  8
0
 10
302.677852
 20
130.878473
 42
0.037335
  0
VERTEX
  8
0
 10
300.955719
 20
131.358856
 42
-0.137906
  0
VERTEX
  8
0
 10
298.151503
 20
132.788520
 42
-0.109411
  0
VERTEX
  8
0
 10
296.203060
 20
135.592525
 42
-0.095926
  0
VERTEX
  8
0
 10
295.459595
 20
139.297106
 42
-0.081571
  0
VERTEX
  8
0
 10
296.080137
 20
143.242818
 42
0.017666
  0
VERTEX
  8
0
 10
296.750311
 20
145.543534
 42
0.097968
  0
VERTEX
  8
0
 10
296.817965
 20
146.823505
 42
0.125002
  0
VERTEX
  8
0
 10
296.382217
 20
147.879908
 42
0.036382
  0
VERTEX
  8
0
 10
295.222222
 20
149.222222
 42
0.036382
  0
VERTEX
  8
0
 10
293.879908
 20
150.382217
 42
0.125002
  0
VERTEX
  8
0
 10
292.823505
 20
150.817965
 42
0.097968
  0
VERTEX
  8
0
 10
291.543534
 20
150.750311
 42
0.017666
  0
VERTEX
  8
0
 10
289.242818
 20
150.080137
 42
-0.081571
  0
VERTEX
  8
0
 10
285.297106
 20
149.459595
 42
-0.095926
  0
VERTEX
  8
0
 10
281.592525
 20
150.203060
 42
-0.109411
  0
VERTEX
  8
0
 10
278.788520
 20
152.151503
 42
-0.137906
  0
VERTEX
  8
0
 10
277.358856
 20
154.955719
 42
0.038589
  0
VERTEX
  8
0
 10
276.865662
 20
156.706822
 42
0.166363
  0
VERTEX
  8
0
 10
276.193963
 20
157.535110
 42
0.123234
  0
VERTEX
  8
0
 10
275.034628
 20
157.912208
 42
0.017313
  0
VERTEX
  8
0
 10
272.500000
 20
158.000000
 42
0.017313
  0
VERTEX
  8
0
 10
269.965372
 20
157.912208
 42
0.123234
  0
VERTEX
  8
0
 10
268.806037
 20
157.535110
 42
0.166363
  0
VERTEX
  8
0
 10
268.134338
 20
156.706822
 42
0.038589
  0
SEQEND
  0
POLYLINE
  8
0
 66
1
 70
1
  0
VERTEX
  8
0
 10
277.644236
 20
132.629592
 42
-0.142394
  0
VERTEX
  8
0
 10
280.263719
 20
128.609907
 42
-0.157782
  0
VERTEX
  8
0
 10
280.178984
 20
123.986870
 42
-0.161939
  0
VERTEX
  8
0
 10
277.418714
 20
120.373953
 42
-0.150446
  0
VERTEX
  8
0
 10
272.955796
 20
119.000000
 42
-0.070968
  0
VERTEX
  8
0
 10
269.442478
 20
119.501194
 42
-0.112503
  0
VERTEX
  8
0
 10
266.796988
 20
120.972171
 42
-0.120739
  0
VERTEX
  8
0
 10
265.170139
 20
123.355466
 42
-0.089901
  0
VERTEX
  8
0
 10
264.600000
 20
126.500751
 42
-0.100903
  0
VERTEX
  8
0
 10
265.230152
 20
129.591524
 42
-0.086873
  0
VERTEX
  8
0
 10
267.037726
 20
132.377362
 42
-0.089452
  0
VERTEX
  8
0
 10
269.627653
 20
134.319780
 42
-0.116793
  0
VERTEX
  8
0
 10
272.500000
 20
135.000000
 42
-0.074713
  0
VERTEX
  8
0
 10
273.611369
 20
134.833000
 42
-0.033385
  0
VERTEX
  8
0
 10
274.996364
 20
134.303693
 42
-0.032107
  0
VERTEX
  8
0
 10
276.413629
 20
133.536816
 42
-0.037566
  0
SEQEND
  0
POLYLINE
  8
0
 66
1
 70
1
  0
VERTEX
  8
0
 10
91.000000
 20
101.501819
 42
0.000000
  0
VERTEX
  8
0
 10
91.000000
 20
72.827923
 42
0.000000
  0
VERTEX
  8
0
 10
107.250000
 20
73.177483
 42
0.003361
  0
VERTEX
  8
0
 10
117.244537
 20
73.459707
 42
0.026435
  0
VERTEX
  8
0
 10
121.867882
 20
73.866732
 42
0.051065
  0
VERTEX
  8
0
 10
125.108276
 20
74.669025
 42
0.034687
  0
VERTEX
  8
0
 10
128.590020
 20
76.199299
 42
0.058737
  0
VERTEX
  8
0
 10
135.205390
 20
80.732746
 42
0.081227
  0
VERTEX
  8
0
 10
139.780531
 20
86.269626
 42
0.078890
  0
VERTEX
  8
0
 10
142.439551
 20
93.104448
 42
0.052088
  0
VERTEX
  8
0
 10
143.362428
 20
101.500000
 42
0.012383
  0
VERTEX
  8
0
 10
143.276294
 20
105.947990
 42
0.037713
  0
VERTEX
  8
0
 10
142.916206
 20
108.946502
 42
0.045713
  0
VERTEX
  8
0
 10
142.155730
 20
111.530058
 42
0.025855
  0
VERTEX
  8
0
 10
140.796070
 20
114.500000
 42
0.033675
  0
VERTEX
  8
0
 10
138.193881
 20
118.760032
 42
0.048351
  0
VERTEX
  8
0
 10
135.305483
 20
122.104865
 42
0.048595
  0
VERTEX
  8
0
 10
131.840190
 20
124.820781
 42
0.034476
  0
VERTEX
  8
0
 10
127.500000
 20
127.184588
 42
0.037388
  0
VERTEX
  8
0
 10
124.143378
 20
128.429080
 42
0.038440
  0
VERTEX
  8
0
 10
120.669766
 20
129.145744
 42
0.022000
  0
VERTEX
  8
0
 10
115.767857
 20
129.551695
 42
0.004109
  0
VERTEX
  8
0
 10
106.750000
 20
129.826060
 42
0.000000
  0
VERTEX
  8
0
 10
91.000000
 20
130.175715
 42
0.000000
  0
SEQEND
  0
POLYLINE
  8
0
 66
1
 70
1
  0
VERTEX
  8
0
 10
122.793382
 20
115.320914
 42
-0.085496
  0
VERTEX
  8
0
 10
127.191797
 20
110.718086
 42
-0.091885
  0
VERTEX
  8
0
 10
129.661203
 20
105.018718
 42
-0.093354
  0
VERTEX
  8
0
 10
129.903070
 20
98.889055
 42
-0.091581
  0
VERTEX
  8
0
 10
127.905744
 20
93.046084
 42
-0.065028
  0
VERTEX
  8
0
 10
125.318541
 20
89.585001
 42
-0.086593
  0
VERTEX
  8
0
 10
122.142953
 20
87.287775
 42
-0.070087
  0
VERTEX
  8
0
 10
117.861040
 20
85.899338
 42
-0.028955
  0
VERTEX
  8
0
 10
111.795737
 20
85.194317
 42
0.000000
  0
VERTEX
  8
0
 10
104.000000
 20
84.743029
 42
0.000000
  0
VERTEX
  8
0
 10
104.000000
 20
101.500000
 42
0.000000
  0
VERTEX
  8
0
 10
104.000000
 20
118.256971
 42
0.000000
  0
VERTEX
  8
0
 10
112.043382
 20
117.791347
 42
-0.012002
  0
VERTEX
  8
0
 10
116.024752
 20
117.464836
 42
-0.030023
  0
VERTEX
  8
0
 10
118.900194
 20
116.983502
 42
-0.041027
  0
VERTEX
  8
0
 10
121.069327
 20
116.293703
 42
-0.061985
  0
SEQEND
  0
POLYLINE
  8
0
 66
1
 70
1
  0
VERTEX
  8
0
 10
176.691231
 20
103.292346
 42
0.000123
  0
VERTEX
  8
0
 10
172.580916
 20
92.897841
 42
0.000187
  0
VERTEX
  8
0
 10
169.012055
 20
83.856189
 42
0.000068
  0
VERTEX
  8
0
 10
165.939272
 20
76.059711
 42
0.004725
  0
VERTEX
  8
0
 10
165.437533
 20
74.750000
 42
0.182179
  0
VERTEX
  8
0
 10
165.441182
 20
73.840490
 42
0.238455
  0
VERTEX
  8
0
 10
166.046921
 20
73.289380
 42
0.061776
  0
VERTEX
  8
0
 10
167.685307
 20
73.047375
 42
0.005814
  0
VERTEX
  8
0
 10
171.759686
 20
73.000000
 42
0.000000
  0
VERTEX
  8
0
 10
178.733349
 20
73.000000
 42
0.000000
  0
VERTEX
  8
0
 10
180.825028
 20
78.033141
 42
0.000000
  0
VERTEX
  8
0
 10
182.916708
 20
83.066281
 42
0.000000
  0
VERTEX
  8
0
 10
194.080567
 20
82.783141
 42
0.000000
  0
VERTEX
  8
0
 10
205.244427
 20
82.500000
 42
0.000000
  0
VERTEX
  8
0
 10
206.998437
 20
78.000000
 42
0.000000
  0
VERTEX
  8
0
 10
208.752448
 20
73.500000
 42
0.000000
  0
VERTEX
  8
0
 10
215.878598
 20
73.206143
 42
0.000000
  0
VERTEX
  8
0
 10
223.004748
 20
72.912285
 42
0.000000
  0
VERTEX
  8
0
 10
221.007563
 20
78.206143
 42
0.003977
  0
VERTEX
  8
0
 10
219.750474
 20
81.459668
 42
0.000465
  0
VERTEX
  8
0
 10
216.878339
 20
88.701179
 42
0.000558
  0
VERTEX
  8
0
 10
213.445289
 20
97.305556
 42
0.000456
  0
VERTEX
  8
0
 10
209.755189
 20
106.500000
 42
0.000000
  0
VERTEX
  8
0
 10
200.500000
 20
129.500000
 42
0.000000
  0
VERTEX
  8
0
 10
193.896709
 20
129.792346
 42
0.000000
  0
VERTEX
  8
0
 10
187.293417
 20
130.084691
 42
0.000000
  0
SEQEND
  0
POLYLINE
  8
0
 66
1
 70
1
  0
VERTEX
  8
0
 10
198.015852
 20
102.725377
 42
-0.006704
  0
VERTEX
  8
0
 10
199.230978
 20
99.324243
 42
-0.010612
  0
VERTEX
  8
0
 10
200.170819
 20
96.375075
 42
-0.004830
  0
VERTEX
  8
0
 10
200.881828
 20
93.880139
 42
-0.269601
  0
VERTEX
  8
0
 10
200.762470
 20
93.429137
 42
-0.184917
  0
VERTEX
  8
0
 10
200.318502
 20
93.231035
 42
-0.006020
  0
VERTEX
  8
0
 10
198.334898
 20
93.147765
 42
-0.010815
  0
VERTEX
  8
0
 10
195.954920
 20
93.128043
 42
-0.007223
  0
VERTEX
  8
0
 10
193.230879
 20
93.203760
 42
0.000000
  0
VERTEX
  8
0
 10
186.220905
 20
93.500000
 42
0.000000
  0
VERTEX
  8
0
 10
189.860453
 20
103.196141
 42
-0.007515
  0
VERTEX
  8
0
 10
191.301166
 20
106.865743
 42
-0.013312
  0
VERTEX
  8
0
 10
192.614127
 20
109.839549
 42
-0.007894
  0
VERTEX
  8
0
 10
193.752740
 20
112.148253
 42
-0.526016
  0
VERTEX
  8
0
 10
194.123808
 20
112.196141
 42
-0.082823
  0
VERTEX
  8
0
 10
194.476627
 20
111.640062
 42
-0.002551
  0
VERTEX
  8
0
 10
195.524417
 20
109.126946
 42
-0.004946
  0
VERTEX
  8
0
 10
196.718324
 20
106.137970
 42
-0.003396
  0
SEQEND
  0
POLYLINE
  8
0
 66
1
 70
1
  0
VERTEX
  8
0
 10
319.549409
 20
123.464011
 42
-0.043882
  0
VERTEX
  8
0
 10
318.668481
 20
121.786213
 42
-0.054544
  0
VERTEX
  8
0
 10
317.560802
 20
120.416928
 42
-0.054161
  0
VERTEX
  8
0
 10
316.176394
 20
119.312383
 42
-0.042383
  0
VERTEX
  8
0
 10
314.470731
 20
118.423324
 42
-0.020900
  0
VERTEX
  8
0
 10
312.337974
 20
117.635160
 42
-0.080465
  0
VERTEX
  8
0
 10
310.945589
 20
117.422432
 42
-0.086883
  0
VERTEX
  8
0
 10
309.612918
 20
117.668117
 42
-0.026782
  0
VERTEX
  8
0
 10
307.731977
 20
118.483821
 42
0.020871
  0
VERTEX
  8
0
 10
305.762843
 20
119.365555
 42
0.134874
  0
VERTEX
  8
0
 10
304.691084
 20
119.485163
 42
0.136414
  0
VERTEX
  8
0
 10
303.714647
 20
119.039539
 42
0.021528
  0
VERTEX
  8
0
 10
302.144882
 20
117.599427
 42
0.025124
  0
VERTEX
  8
0
 10
300.789360
 20
116.100378
 42
0.117524
  0
VERTEX
  8
0
 10
300.285816
 20
115.060479
 42
0.123832
  0
VERTEX
  8
0
 10
300.318995
 20
113.933665
 42
0.029222
  0
VERTEX
  8
0
 10
300.941609
 20
112.140968
 42
-0.095338
  0
VERTEX
  8
0
 10
301.751819
 20
108.196732
 42
-0.109705
  0
VERTEX
  8
0
 10
300.967048
 20
104.441932
 42
-0.111680
  0
VERTEX
  8
0
 10
298.684628
 20
101.420876
 42
-0.101734
  0
VERTEX
  8
0
 10
295.250000
 20
99.550893
 42
0.073166
  0
VERTEX
  8
0
 10
294.118139
 20
99.015443
 42
0.130790
  0
VERTEX
  8
0
 10
293.441842
 20
98.248618
 42
0.091791
  0
VERTEX
  8
0
 10
293.096958
 20
97.047334
 42
0.024132
  0
VERTEX
  8
0
 10
293.000000
 20
95.039601
 42
0.027306
  0
VERTEX
  8
0
 10
293.094376
 20
93.312760
 42
0.058459
  0
VERTEX
  8
0
 10
293.393034
 20
92.013726
 42
0.081504
  0
VERTEX
  8
0
 10
293.889428
 20
91.116661
 42
0.134891
  0
VERTEX
  8
0
 10
294.581787
 20
90.606989
 42
0.074111
  0
VERTEX
  8
0
 10
295.661842
 20
90.367217
 42
0.005105
  0
VERTEX
  8
0
 10
298.791120
 20
90.178303
 42
0.007187
  0
VERTEX
  8
0
 10
302.542897
 20
90.044255
 42
0.005335
  0
VERTEX
  8
0
 10
306.690195
 20
90.000000
 42
0.000000
  0
VERTEX
  8
0
 10
317.216816
 20
90.000000
 42
0.000000
  0
VERTEX
  8
0
 10
316.550769
 20
92.653741
 42
-0.150705
  0
VERTEX
  8
0
 10
316.808514
 20
97.488980
 42
-0.151114
  0
VERTEX
  8
0
 10
319.745162
 20
101.332977
 42
-0.153591
  0
VERTEX
  8
0
 10
324.297771
 20
102.809708
 42
-0.156221
  0
VERTEX
  8
0
 10
328.840612
 20
101.399086
 42
-0.073397
  0
VERTEX
  8
0
 10
330.775617
 20
99.568987
 42
-0.081575
  0
VERTEX
  8
0
 10
332.016276
 20
97.319054
 42
-0.085404
  0
VERTEX
  8
0
 10
332.436788
 20
94.880287
 42
-0.091170
  0
VERTEX
  8
0
 10
332.000000
 20
92.500000
 42
0.000000
  0
VERTEX
  8
0
 10
331.049502
 20
90.000000
 42
0.000000
  0
VERTEX
  8
0
 10
341.942963
 20
90.000000
 42
0.005159
  0
VERTEX
  8
0
 10
346.230844
 20
90.044239
 42
0.006996
  0
VERTEX
  8
0
 10
350.101121
 20
90.178303
 42
0.004870
  0
VERTEX
  8
0
 10
353.331033
 20
90.367008
 42
0.074716
  0
VERTEX
  8
0
 10
354.418213
 20
90.606989
 42
0.241319
  0
VERTEX
  8
0
 10
355.687719
 20
92.023265
 42
0.064249
  0
VERTEX
  8
0
 10
356.089603
 20
95.123750
 42
0.069604
  0
VERTEX
  8
0
 10
355.682070
 20
98.049438
 42
0.335114
  0
VERTEX
  8
0
 10
354.423077
 20
99.000000
 42
-0.167344
  0
VERTEX
  8
0
 10
352.342644
 20
99.716357
 42
-0.045634
  0
VERTEX
  8
0
 10
349.774267
 20
102.130418
 42
-0.046104
  0
VERTEX
  8
0
 10
347.652589
 20
105.022024
 42
-0.136047
  0
VERTEX
  8
0
 10
347.000000
 20
107.376024
 42
-0.036518
  0
VERTEX
  8
0
 10
347.084536
 20
108.531951
 42
-0.020165
  0
VERTEX
  8
0
 10
347.347039
 20
109.924413
 42
-0.020013
  0
VERTEX
  8
0
 10
347.728749
 20
111.321672
 42
-0.030216
  0
VERTEX
  8
0
 10
348.181411
 20
112.498809
 42
0.040813
  0
VERTEX
  8
0
 10
348.729484
 20
114.019370
 42
0.131819
  0
VERTEX
  8
0
 10
348.731867
 20
115.084216
 42
0.108624
  0
VERTEX
  8
0
 10
348.194567
 20
116.125692
 42
0.023182
  0
VERTEX
  8
0
 10
346.814289
 20
117.640256
 42
0.019331
  0
VERTEX
  8
0
 10
345.158136
 20
119.173073
 42
0.139057
  0
VERTEX
  8
0
 10
344.179473
 20
119.623974
 42
0.139546
  0
VERTEX
  8
0
 10
343.111434
 20
119.493131
 42
0.019515
  0
VERTEX
  8
0
 10
341.075909
 20
118.539254
 42
-0.023994
  0
VERTEX
  8
0
 10
339.097920
 20
117.633849
 42
-0.101377
  0
VERTEX
  8
0
 10
337.821587
 20
117.402610
 42
-0.092145
  0
VERTEX
  8
0
 10
336.495829
 20
117.680481
 42
-0.017938
  0
VERTEX
  8
0
 10
334.261938
 20
118.694860
 42
-0.029082
  0
VERTEX
  8
0
 10
331.987492
 20
119.997927
 42
-0.070183
  0
VERTEX
  8
0
 10
330.531309
 20
121.271370
 42
-0.071747
  0
VERTEX
  8
0
 10
329.502783
 20
122.880053
 42
-0.031487
  0
VERTEX
  8
0
 10
328.603536
 20
125.250000
 42
0.114849
  0
VERTEX
  8
0
 10
328.142066
 20
126.040505
 42
0.102006
  0
VERTEX
  8
0
 10
327.360507
 20
126.587209
 42
0.072224
  0
VERTEX
  8
0
 10
326.189810
 20
126.902262
 42
0.029681
  0
VERTEX
  8
0
 10
324.544805
 20
127.000000
 42
0.034506
  0
VERTEX
  8
0
 10
322.562016
 20
126.863000
 42
0.120073
  0
VERTEX
  8
0
 10
321.376705
 20
126.393727
 42
0.112097
  0
VERTEX
  8
0
 10
320.495202
 20
125.411803
 42
0.028137
  0
SEQEND
  0
POLYLINE
  8
0
 66
1
 70
1
  0
VERTEX
  8
0
 10
249.764045
 20
85.004287
 42
0.064786
  0
VERTEX
  8
0
 10
244.449954
 20
82.619288
 42
0.082351
  0
VERTEX
  8
0
 10
240.398385
 20
79.097322
 42
0.087667
  0
VERTEX
  8
0
 10
237.875409
 20
74.649631
 42
0.085484
  0
VERTEX
  8
0
 10
237.000000
 20
69.566752
 42
0.088684
  0
VERTEX
  8
0
 10
238.071642
 20
63.572355
 42
0.109676
  0
VERTEX
  8
0
 10
241.136311
 20
58.815059
 42
0.088035
  0
VERTEX
  8
0
 10
246.525230
 20
55.093305
 42
0.040202
  0
VERTEX
  8
0
 10
254.591552
 20
52.163177
 42
-0.012929
  0
VERTEX
  8
0
 10
261.429770
 20
50.093270
 42
-0.056409
  0
VERTEX
  8
0
 10
265.263020
 20
48.323728
 42
-0.108603
  0
VERTEX
  8
0
 10
267.274581
 20
46.405936
 42
-0.149320
  0
VERTEX
  8
0
 10
268.000000
 20
44.031024
 42
-0.117835
  0
VERTEX
  8
0
 10
267.402044
 20
41.528986
 42
-0.121728
  0
VERTEX
  8
0
 10
265.741396
 20
39.602552
 42
-0.098555
  0
VERTEX
  8
0
 10
263.052622
 20
38.399823
 42
-0.056094
  0
VERTEX
  8
0
 10
259.500000
 20
38.000000
 42
-0.058133
  0
VERTEX
  8
0
 10
256.267766
 20
38.377070
 42
-0.074810
  0
VERTEX
  8
0
 10
253.495233
 20
39.489637
 42
-0.081629
  0
VERTEX
  8
0
 10
251.354455
 20
41.270396
 42
-0.087908
  0
VERTEX
  8
0
 10
249.961633
 20
43.600914
 42
0.079924
  0
VERTEX
  8
0
 10
249.202163
 20
44.918692
 42
0.143738
  0
VERTEX
  8
0
 10
248.182823
 20
45.620463
 42
0.070379
  0
VERTEX
  8
0
 10
246.444737
 20
45.931161
 42
0.009091
  0
VERTEX
  8
0
 10
242.659025
 20
46.000000
 42
0.000000
  0
VERTEX
  8
0
 10
236.268548
 20
46.000000
 42
0.000000
  0
VERTEX
  8
0
 10
236.977132
 20
42.125057
 42
0.058865
  0
VERTEX
  8
0
 10
238.131933
 20
38.371430
 42
0.057850
  0
VERTEX
  8
0
 10
240.134511
 20
34.966281
 42
0.056670
  0
VERTEX
  8
0
 10
242.907341
 20
32.051327
 42
0.052389
  0
VERTEX
  8
0
 10
246.334215
 20
29.744523
 42
0.036823
  0
VERTEX
  8
0
 10
248.884389
 20
28.623435
 42
0.043271
  0
VERTEX
  8
0
 10
251.438606
 20
27.960123
 42
0.031524
  0
VERTEX
  8
0
 10
254.656819
 20
27.622382
 42
0.009908
  0
VERTEX
  8
0
 10
259.500000
 20
27.517163
 42
0.026453
  0
VERTEX
  8
0
 10
266.474221
 20
27.873061
 42
0.064268
  0
VERTEX
  8
0
 10
271.479147
 20
29.056753
 42
0.079377
  0
VERTEX
  8
0
 10
275.364933
 20
31.276540
 42
0.060512
  0
VERTEX
  8
0
 10
278.789780
 20
34.791034
 42
0.090515
  0
VERTEX
  8
0
 10
280.834425
 20
38.805603
 42
0.066888
  0
VERTEX
  8
0
 10
281.615239
 20
43.739597
 42
0.067211
  0
VERTEX
  8
0
 10
281.065521
 20
48.678585
 42
0.093700
  0
VERTEX
  8
0
 10
279.208628
 20
52.707010
 42
0.083543
  0
VERTEX
  8
0
 10
276.577031
 20
55.338202
 42
0.035080
  0
VERTEX
  8
0
 10
272.290546
 20
57.957381
 42
0.032395
  0
VERTEX
  8
0
 10
267.050959
 20
60.257088
 42
0.029881
  0
VERTEX
  8
0
 10
261.416065
 20
61.932981
 42
-0.030197
  0
VERTEX
  8
0
 10
256.610319
 20
63.365583
 42
-0.057789
  0
VERTEX
  8
0
 10
253.017626
 20
65.170438
 42
-0.079907
  0
VERTEX
  8
0
 10
250.767504
 20
67.226924
 42
-0.169304
  0
VERTEX
  8
0
 10
250.000000
 20
69.428598
 42
-0.229158
  0
VERTEX
  8
0
 10
251.641608
 20
72.822335
 42
-0.118512
  0
VERTEX
  8
0
 10
256.017512
 20
74.849376
 42
-0.102585
  0
VERTEX
  8
0
 10
261.375022
 20
74.814125
 42
-0.144586
  0
VERTEX
  8
0
 10
265.545455
 20
72.545455
 42
-0.028546
  0
VERTEX
  8
0
 10
266.484853
 20
71.492200
 42
-0.030224
  0
VERTEX
  8
0
 10
267.278977
 20
70.357955
 42
-0.031702
  0
VERTEX
  8
0
 10
267.836745
 20
69.304656
 42
-0.106302
  0
VERTEX
  8
0
 10
268.000000
 20
68.545455
 42
0.222998
  0
VERTEX
  8
0
 10
268.356671
 20
67.785503
 42
0.116132
  0
VERTEX
  8
0
 10
269.314324
 20
67.308723
 42
0.048707
  0
VERTEX
  8
0
 10
271.155517
 20
67.061695
 42
0.009009
  0
VERTEX
  8
0
 10
274.579455
 20
67.000000
 42
0.000000
  0
VERTEX
  8
0
 10
281.158911
 20
67.000000
 42
0.000000
  0
VERTEX
  8
0
 10
280.459017
 20
70.250000
 42
0.061046
  0
VERTEX
  8
0
 10
278.733514
 20
75.221782
 42
0.071274
  0
VERTEX
  8
0
 10
275.920801
 20
79.348150
 42
0.070185
  0
VERTEX
  8
0
 10
272.022521
 20
82.565869
 42
0.056768
  0
VERTEX
  8
0
 10
267.100777
 20
84.861897
 42
0.056867
  0
VERTEX
  8
0
 10
263.550998
 20
85.616539
 42
0.021915
  0
VERTEX
  8
0
 10
258.513369
 20
85.878913
 42
0.022012
  0
VERTEX
  8
0
 10
253.444087
 20
85.697333
 42
0.053212
  0
SEQEND
  0
POLYLINE
  8
0
 66
1
 70
1
  0
VERTEX
  8
0
 10
309.000000
 20
56.500000
 42
0.000000
  0
VERTEX
  8
0
 10
309.000000
 20
28.000000
 42
0.000000
  0
VERTEX
  8
0
 10
315.500000
 20
28.000000
 42
0.000000
  0
VERTEX
  8
0
 10
322.000000
 20
28.000000
 42
0.000000
  0
VERTEX
  8
0
 10
322.000000
 20
39.500000
 42
0.000000
  0
VERTEX
  8
0
 10
322.000000
 20
51.000000
 42
0.000000
  0
VERTEX
  8
0
 10
333.500000
 20
51.000000
 42
0.000000
  0
VERTEX
  8
0
 10
345.000000
 20
51.000000
 42
0.000000
  0
VERTEX
  8
0
 10
345.000000
 20
39.500000
 42
0.000000
  0
VERTEX
  8
0
 10
345.000000
 20
28.000000
 42
0.000000
  0
VERTEX
  8
0
 10
351.500000
 20
28.000000
 42
0.000000
  0
VERTEX
  8
0
 10
358.000000
 20
28.000000
 42
0.000000
  0
VERTEX
  8
0
 10
358.000000
 20
56.500000
 42
0.000000
  0
VERTEX
  8
0
 10
358.000000
 20
85.000000
 42
0.000000
  0
VERTEX
  8
0
 10
351.500000
 20
85.000000
 42
0.000000
  0
VERTEX
  8
0
 10
345.000000
 20
85.000000
 42
0.000000
  0
VERTEX
  8
0
 10
345.000000
 20
74.000000
 42
0.000000
  0
VERTEX
  8
0
 10
345.000000
 20
63.000000
 42
0.000000
  0
VERTEX
  8
0
 10
333.500000
 20
63.000000
 42
0.000000
  0
VERTEX
  8
0
 10
322.000000
 20
63.000000
 42
0.000000
  0
VERTEX
  8
0
 10
322.000000
 20
74.000000
 42
0.000000
  0
VERTEX
  8
0
 10
322.000000
 20
85.000000
 42
0.000000
  0
VERTEX
  8
0
 10
315.500000
 20
85.000000
 42
0.000000
  0
VERTEX
  8
0
 10
309.000000
 20
85.000000
 42
0.000000
  0
SEQEND
  0
POLYLINE
  8
0
 66
1
 70
1
  0
VERTEX
  8
0
 10
90.937500
 20
51.000000
 42
0.010178
  0
VERTEX
  8
0
 10
90.910044
 20
50.347654
 42
0.000794
  0
VERTEX
  8
0
 10
90.874975
 20
48.604688
 42
0.001083
  0
VERTEX
  8
0
 10
90.840947
 20
46.525193
 42
0.000828
  0
VERTEX
  8
0
 10
90.812416
 20
44.250000
 42
0.000000
  0
VERTEX
  8
0
 10
90.749832
 20
38.500000
 42
0.000000
  0
VERTEX
  8
0
 10
153.874916
 20
38.242543
 42
0.000000
  0
VERTEX
  8
0
 10
217.000000
 20
37.985085
 42
0.000000
  0
VERTEX
  8
0
 10
217.000000
 20
44.992543
 42
0.000000
  0
VERTEX
  8
0
 10
217.000000
 20
52.000000
 42
0.000000
  0
VERTEX
  8
0
 10
154.000000
 20
52.000000
 42
0.001062
  0
VERTEX
  8
0
 10
126.468414
 20
51.941503
 42
0.002902
  0
VERTEX
  8
0
 10
106.999736
 20
51.745784
 42
0.000469
  0
VERTEX
  8
0
 10
91.444157
 20
51.484508
 42
0.390928
  0
SEQEND
  0
ENDSEC
  0
EOF
