  0
SECTION
  2
HEADER
  9
$ACADVER
  1
AC1015
  9
$ACADMAINTVER
 70
     6
  9
$DWGCODEPAGE
  3
ANSI_1251
  9
$INSBASE
 10
0.0
 20
0.0
 30
0.0
  9
$EXTMIN
 10
-118.0
 20
-302.0
 30
0.0
  9
$EXTMAX
 10
118.0
 20
12.0
 30
0.0
  9
$LIMMIN
 10
0.0
 20
0.0
  9
$LIMMAX
 10
420.0
 20
297.0
  9
$ORTHOMODE
 70
     0
  9
$REGENMODE
 70
     1
  9
$FILLMODE
 70
     1
  9
$QTEXTMODE
 70
     0
  9
$MIRRTEXT
 70
     1
  9
$LTSCALE
 40
1.0
  9
$ATTMODE
 70
     1
  9
$TEXTSIZE
 40
3.5
  9
$TRACEWID
 40
1.0
  9
$TEXTSTYLE
  7
Standard
  9
$CLAYER
  8
0
  9
$CELTYPE
  6
ByLayer
  9
$CECOLOR
 62
   256
  9
$CELTSCALE
 40
1.0
  9
$DISPSILH
 70
     0
  9
$DIMSCALE
 40
1.0
  9
$DIMASZ
 40
3.302
  9
$DIMEXO
 40
0.0
  9
$DIMDLI
 40
3.75
  9
$DIMRND
 40
0.0
  9
$DIMDLE
 40
0.0
  9
$DIMEXE
 40
1.0
  9
$DIMTP
 40
0.0
  9
$DIMTM
 40
0.0
  9
$DIMTXT
 40
3.5
  9
$DIMCEN
 40
2.5
  9
$DIMTSZ
 40
0.0
  9
$DIMTOL
 70
     0
  9
$DIMLIM
 70
     0
  9
$DIMTIH
 70
     1
  9
$DIMTOH
 70
     1
  9
$DIMSE1
 70
     0
  9
$DIMSE2
 70
     0
  9
$DIMTAD
 70
     1
  9
$DIMZIN
 70
     0
  9
$DIMBLK
  1

  9
$DIMASO
 70
     1
  9
$DIMSHO
 70
     1
  9
$DIMPOST
  1

  9
$DIMAPOST
  1

  9
$DIMALT
 70
     0
  9
$DIMALTD
 70
     3
  9
$DIMALTF
 40
0.0393700787
  9
$DIMLFAC
 40
1.0
  9
$DIMTOFL
 70
     1
  9
$DIMTVP
 40
0.0
  9
$DIMTIX
 70
     0
  9
$DIMSOXD
 70
     0
  9
$DIMSAH
 70
     0
  9
$DIMBLK1
  1

  9
$DIMBLK2
  1

  9
$DIMSTYLE
  2
ISO-25
  9
$DIMCLRD
 70
     0
  9
$DIMCLRE
 70
     0
  9
$DIMCLRT
 70
     0
  9
$DIMTFAC
 40
1.0
  9
$DIMGAP
 40
1.524
  9
$DIMJUST
 70
     0
  9
$DIMSD1
 70
     0
  9
$DIMSD2
 70
     0
  9
$DIMTOLJ
 70
     0
  9
$DIMTZIN
 70
     0
  9
$DIMALTZ
 70
     0
  9
$DIMALTTZ
 70
     0
  9
$DIMUPT
 70
     0
  9
$DIMDEC
 70
     2
  9
$DIMTDEC
 70
     3
  9
$DIMALTU
 70
     2
  9
$DIMALTTD
 70
     3
  9
$DIMTXSTY
  7
Standard
  9
$DIMAUNIT
 70
     0
  9
$DIMADEC
 70
     2
  9
$DIMALTRND
 40
0.0
  9
$DIMAZIN
 70
     0
  9
$DIMDSEP
 70
    44
  9
$DIMATFIT
 70
     3
  9
$DIMFRAC
 70
     0
  9
$DIMLDRBLK
  1

  9
$DIMLUNIT
 70
     2
  9
$DIMLWD
 70
    -2
  9
$DIMLWE
 70
    -2
  9
$DIMTMOVE
 70
     0
  9
$LUNITS
 70
     2
  9
$LUPREC
 70
     2
  9
$SKETCHINC
 40
1.0
  9
$FILLETRAD
 40
10.0
  9
$AUNITS
 70
     0
  9
$AUPREC
 70
     2
  9
$MENU
  1
.
  9
$ELEVATION
 40
0.0
  9
$PELEVATION
 40
0.0
  9
$THICKNESS
 40
0.0
  9
$LIMCHECK
 70
     0
  9
$CHAMFERA
 40
0.0
  9
$CHAMFERB
 40
0.0
  9
$CHAMFERC
 40
0.0
  9
$CHAMFERD
 40
0.0
  9
$SKPOLY
 70
     0
  9
$TDCREATE
 40
2459329.818126157
  9
$TDUCREATE
 40
2459329.693126157
  9
$TDUPDATE
 40
2459329.818154166
  9
$TDUUPDATE
 40
2459329.693154166
  9
$TDINDWG
 40
0.0000000116
  9
$TDUSRTIMER
 40
0.0000000116
  9
$USRTIMER
 70
     1
  9
$ANGBASE
 50
0.0
  9
$ANGDIR
 70
     0
  9
$PDMODE
 70
     0
  9
$PDSIZE
 40
-1.0
  9
$PLINEWID
 40
0.0
  9
$SPLFRAME
 70
     0
  9
$SPLINETYPE
 70
     6
  9
$SPLINESEGS
 70
     8
  9
$HANDSEED
  5
CB
  9
$SURFTAB1
 70
     6
  9
$SURFTAB2
 70
     6
  9
$SURFTYPE
 70
     6
  9
$SURFU
 70
     6
  9
$SURFV
 70
     6
  9
$UCSBASE
  2

  9
$UCSNAME
  2

  9
$UCSORG
 10
0.0
 20
0.0
 30
0.0
  9
$UCSXDIR
 10
1.0
 20
0.0
 30
0.0
  9
$UCSYDIR
 10
0.0
 20
1.0
 30
0.0
  9
$UCSORTHOREF
  2

  9
$UCSORTHOVIEW
 70
     0
  9
$UCSORGTOP
 10
0.0
 20
0.0
 30
0.0
  9
$UCSORGBOTTOM
 10
0.0
 20
0.0
 30
0.0
  9
$UCSORGLEFT
 10
0.0
 20
0.0
 30
0.0
  9
$UCSORGRIGHT
 10
0.0
 20
0.0
 30
0.0
  9
$UCSORGFRONT
 10
0.0
 20
0.0
 30
0.0
  9
$UCSORGBACK
 10
0.0
 20
0.0
 30
0.0
  9
$PUCSBASE
  2

  9
$PUCSNAME
  2

  9
$PUCSORG
 10
0.0
 20
0.0
 30
0.0
  9
$PUCSXDIR
 10
1.0
 20
0.0
 30
0.0
  9
$PUCSYDIR
 10
0.0
 20
1.0
 30
0.0
  9
$PUCSORTHOREF
  2

  9
$PUCSORTHOVIEW
 70
     0
  9
$PUCSORGTOP
 10
0.0
 20
0.0
 30
0.0
  9
$PUCSORGBOTTOM
 10
0.0
 20
0.0
 30
0.0
  9
$PUCSORGLEFT
 10
0.0
 20
0.0
 30
0.0
  9
$PUCSORGRIGHT
 10
0.0
 20
0.0
 30
0.0
  9
$PUCSORGFRONT
 10
0.0
 20
0.0
 30
0.0
  9
$PUCSORGBACK
 10
0.0
 20
0.0
 30
0.0
  9
$USERI1
 70
     0
  9
$USERI2
 70
     0
  9
$USERI3
 70
     0
  9
$USERI4
 70
     0
  9
$USERI5
 70
     0
  9
$USERR1
 40
0.0
  9
$USERR2
 40
0.0
  9
$USERR3
 40
0.0
  9
$USERR4
 40
0.0
  9
$USERR5
 40
0.0
  9
$WORLDVIEW
 70
     1
  9
$SHADEDGE
 70
     3
  9
$SHADEDIF
 70
    70
  9
$TILEMODE
 70
     1
  9
$MAXACTVP
 70
    64
  9
$PINSBASE
 10
0.0
 20
0.0
 30
0.0
  9
$PLIMCHECK
 70
     0
  9
$PEXTMIN
 10
1.0000000000E+20
 20
1.0000000000E+20
 30
1.0000000000E+20
  9
$PEXTMAX
 10
-1.0000000000E+20
 20
-1.0000000000E+20
 30
-1.0000000000E+20
  9
$PLIMMIN
 10
0.0
 20
0.0
  9
$PLIMMAX
 10
420.0
 20
297.0
  9
$UNITMODE
 70
     0
  9
$VISRETAIN
 70
     1
  9
$PLINEGEN
 70
     0
  9
$PSLTSCALE
 70
     1
  9
$TREEDEPTH
 70
  3020
  9
$CMLSTYLE
  2
Standard
  9
$CMLJUST
 70
     0
  9
$CMLSCALE
 40
20.0
  9
$PROXYGRAPHICS
 70
     1
  9
$MEASUREMENT
 70
     1
  9
$CELWEIGHT
370
    -1
  9
$ENDCAPS
280
     0
  9
$JOINSTYLE
280
     0
  9
$LWDISPLAY
290
     1
  9
$INSUNITS
 70
     4
  9
$HYPERLINKBASE
  1

  9
$STYLESHEET
  1

  9
$XEDIT
290
     1
  9
$CEPSNTYPE
380
     0
  9
$PSTYLEMODE
290
     1
  9
$FINGERPRINTGUID
  2
{362037DC-011D-4DC2-B12B-A20672282991}
  9
$VERSIONGUID
  2
{FAEB1C32-E019-11D5-929B-00C0DF256EC4}
  9
$EXTNAMES
290
     1
  9
$PSVPSCALE
 40
0.0
  9
$OLESTARTUP
290
     0
  0
ENDSEC
  0
SECTION
  2
CLASSES
  0
CLASS
  1
ACDBDICTIONARYWDFLT
  2
AcDbDictionaryWithDefault
  3
ObjectDBX Classes
 90
        0
280
     0
281
     0
  0
CLASS
  1
VISUALSTYLE
  2
AcDbVisualStyle
  3
ObjectDBX Classes
 90
     4095
280
     0
281
     0
  0
CLASS
  1
MATERIAL
  2
AcDbMaterial
  3
ObjectDBX Classes
 90
     1153
280
     0
281
     0
  0
CLASS
  1
SCALE
  2
AcDbScale
  3
ObjectDBX Classes
 90
     1153
280
     0
281
     0
  0
CLASS
  1
TABLESTYLE
  2
AcDbTableStyle
  3
ObjectDBX Classes
 90
     4095
280
     0
281
     0
  0
CLASS
  1
MLEADERSTYLE
  2
AcDbMLeaderStyle
  3
ACDB_MLEADERSTYLE_CLASS
 90
     4095
280
     0
281
     0
  0
CLASS
  1
SUN
  2
AcDbSun
  3
SCENEOE
 90
     1153
280
     0
281
     0
  0
CLASS
  1
ACDBPLACEHOLDER
  2
AcDbPlaceHolder
  3
ObjectDBX Classes
 90
        0
280
     0
281
     0
  0
CLASS
  1
LAYOUT
  2
AcDbLayout
  3
ObjectDBX Classes
 90
        0
280
     0
281
     0
  0
ENDSEC
  0
SECTION
  2
TABLES
  0
TABLE
  2
VPORT
  5
8
330
0
100
AcDbSymbolTable
 70
     1
  0
VPORT
  5
29
330
8
100
AcDbSymbolTableRecord
100
AcDbViewportTableRecord
  2
*Active
 70
     0
 10
0.0
 20
0.0
 11
1.0
 21
1.0
 12
0.0
 22
-145.0
 13
0.0
 23
0.0
 14
10.0
 24
10.0
 15
10.0
 25
10.0
 16
0.0
 26
0.0
 36
1.0
 17
0.0
 27
0.0
 37
0.0
 40
320.28
 41
0.7515923567
 42
50.0
 43
0.0
 44
0.0
 50
0.0
 51
0.0
 71
     0
 72
   100
 73
     1
 74
     3
 75
     0
 76
     0
 77
     0
 78
     0
281
     0
 65
     1
110
0.0
120
0.0
130
0.0
111
1.0
121
0.0
131
0.0
112
0.0
122
1.0
132
0.0
 79
     0
146
0.0
  0
ENDTAB
  0
TABLE
  2
LTYPE
  5
5
330
0
100
AcDbSymbolTable
 70
     6
  0
LTYPE
  5
14
330
5
100
AcDbSymbolTableRecord
100
AcDbLinetypeTableRecord
  2
ByBlock
 70
     0
  3

 72
    65
 73
     0
 40
0.0
  0
LTYPE
  5
15
330
5
100
AcDbSymbolTableRecord
100
AcDbLinetypeTableRecord
  2
ByLayer
 70
     0
  3

 72
    65
 73
     0
 40
0.0
  0
LTYPE
  5
16
330
5
100
AcDbSymbolTableRecord
100
AcDbLinetypeTableRecord
  2
Continuous
 70
     0
  3
Solid line
 72
    65
 73
     0
 40
0.0
  0
LTYPE
  5
6E
330
5
100
AcDbSymbolTableRecord
100
AcDbLinetypeTableRecord
  2
HIDDEN
 70
     0
  3
Hidden __ __ __ __ __ __ __ __ __ __ __ __ __ __
 72
    65
 73
     2
 40
1.905
 49
1.27
 74
     0
 49
-0.635
 74
     0
  0
LTYPE
  5
6F
330
5
100
AcDbSymbolTableRecord
100
AcDbLinetypeTableRecord
  2
PHANTOM
 70
     0
  3
Phantom ______  __  __  ______  __  __  ______
 72
    65
 73
     6
 40
12.7
 49
6.35
 74
     0
 49
-1.27
 74
     0
 49
1.27
 74
     0
 49
-1.27
 74
     0
 49
1.27
 74
     0
 49
-1.27
 74
     0
  0
LTYPE
  5
70
330
5
100
AcDbSymbolTableRecord
100
AcDbLinetypeTableRecord
  2
CENTER
 70
     0
  3
Center ____ _ ____ _ ____ _ ____ _ ____ _ ____
 72
    65
 73
     4
 40
10.16
 49
6.35
 74
     0
 49
-1.27
 74
     0
 49
1.27
 74
     0
 49
-1.27
 74
     0
  0
LTYPE
  5
71
330
5
100
AcDbSymbolTableRecord
100
AcDbLinetypeTableRecord
  2
CENTERX2
 70
     0
  3
Center (2x) ________  __  ________  __  _____
 72
    65
 73
     4
 40
20.32
 49
12.7
 74
     0
 49
-2.54
 74
     0
 49
2.54
 74
     0
 49
-2.54
 74
     0
  0
LTYPE
  5
72
330
5
100
AcDbSymbolTableRecord
100
AcDbLinetypeTableRecord
  2
DOT2
 70
     0
  3
Dot (.5x) ........................................
 72
    65
 73
     2
 40
0.635
 49
0.0
 74
     0
 49
-0.635
 74
     0
  0
ENDTAB
  0
TABLE
  2
LAYER
  5
2
330
0
100
AcDbSymbolTable
 70
     1
  0
LAYER
  5
10
330
2
100
AcDbSymbolTableRecord
100
AcDbLayerTableRecord
  2
0
 70
     0
 62
     7
  6
Continuous
370
    -3
390
F
  0
ENDTAB
  0
TABLE
  2
STYLE
  5
3
330
0
100
AcDbSymbolTable
 70
     1
  0
STYLE
  5
11
330
3
100
AcDbSymbolTableRecord
100
AcDbTextStyleTableRecord
  2
Standard
 70
     0
 40
0.0
 41
1.0
 50
0.0
 71
     0
 42
3.5
  3
txt
  4

  0
ENDTAB
  0
TABLE
  2
VIEW
  5
6
330
0
100
AcDbSymbolTable
 70
     0
  0
ENDTAB
  0
TABLE
  2
UCS
  5
7
330
0
100
AcDbSymbolTable
 70
     0
  0
ENDTAB
  0
TABLE
  2
APPID
  5
9
330
0
100
AcDbSymbolTable
 70
     1
  0
APPID
  5
12
330
9
100
AcDbSymbolTableRecord
100
AcDbRegAppTableRecord
  2
ACAD
 70
     0
  0
ENDTAB
  0
TABLE
  2
DIMSTYLE
  5
A
330
0
100
AcDbSymbolTable
 70
     1
100
AcDbDimStyleTable
  0
DIMSTYLE
105
27
330
A
100
AcDbSymbolTableRecord
100
AcDbDimStyleTableRecord
  2
ISO-25
 70
     0
 41
2.5
 42
0.625
 43
3.75
 44
1.25
 73
     0
 74
     0
 77
     1
 78
     8
140
2.5
141
2.5
143
0.0393700787
147
0.625
171
     3
172
     1
178
     0
271
     2
272
     2
274
     3
278
    44
283
     0
284
     8
340
11
  0
ENDTAB
  0
TABLE
  2
BLOCK_RECORD
  5
1
330
0
100
AcDbSymbolTable
 70
     1
  0
BLOCK_RECORD
  5
1F
330
1
100
AcDbSymbolTableRecord
100
AcDbBlockTableRecord
  2
*Model_Space
340
22
  0
BLOCK_RECORD
  5
1B
330
1
100
AcDbSymbolTableRecord
100
AcDbBlockTableRecord
  2
*Paper_Space
340
1E
  0
BLOCK_RECORD
  5
23
330
1
100
AcDbSymbolTableRecord
100
AcDbBlockTableRecord
  2
*Paper_Space0
340
26
  0
ENDTAB
  0
ENDSEC
  0
SECTION
  2
BLOCKS
  0
BLOCK
  5
20
330
1F
100
AcDbEntity
  8
0
100
AcDbBlockBegin
  2
*Model_Space
 70
     0
 10
0.0
 20
0.0
 30
0.0
  3
*Model_Space
  1

  0
ENDBLK
  5
21
330
1F
100
AcDbEntity
  8
0
100
AcDbBlockEnd
  0
BLOCK
  5
1C
330
1B
100
AcDbEntity
 67
     1
  8
0
100
AcDbBlockBegin
  2
*Paper_Space
 70
     0
 10
0.0
 20
0.0
 30
0.0
  3
*Paper_Space
  1

  0
ENDBLK
  5
1D
330
1B
100
AcDbEntity
 67
     1
  8
0
100
AcDbBlockEnd
  0
BLOCK
  5
24
330
23
100
AcDbEntity
  8
0
100
AcDbBlockBegin
  2
*Paper_Space0
 70
     0
 10
0.0
 20
0.0
 30
0.0
  3
*Paper_Space0
  1

  0
ENDBLK
  5
25
330
23
100
AcDbEntity
  8
0
100
AcDbBlockEnd
  0
ENDSEC
  0
SECTION
  2
ENTITIES
  0
SPLINE
  5
73
330
1F
100
AcDbEntity
  8
0
  6
Continuous
 62
     7
370
    25
100
AcDbSpline
210
0.0
220
0.0
230
1.0
 70
     8
 71
     3
 72
    23
 73
    19
 74
     0
 42
0.000000001
 43
0.00000001
 40
0.0
 40
0.0
 40
0.0
 40
0.0
 40
0.0675548908418179
 40
0.1322243287553904
 40
0.1940803687675381
 40
0.2539251522187621
 40
0.312527181287745
 40
0.3705372779718079
 40
0.4283558236992051
 40
0.4870971736248798
 40
0.5461628767513272
 40
0.6054325199829976
 40
0.6654829190283428
 40
0.7269697287522437
 40
0.7907177096456587
 40
0.8571541689570746
 40
0.9266008175491716
 40
0.9999999999999999
 40
0.9999999999999999
 40
0.9999999999999999
 40
0.9999999999999999
 10
2.010616987179518
 20
-166.948717948718
 30
0.0
 10
1.390691117291671
 20
-166.9332021182206
 30
0.0
 10
0.1773180957001484
 20
-166.9028331805015
 30
0.0
 10
-1.593535627360256
 20
-166.6863245156
 30
0.0
 10
-3.265716294913099
 20
-166.3152459554767
 30
0.0
 10
-4.838033161939574
 20
-165.7922900013031
 30
0.0
 10
-6.321209717188649
 20
-165.1353883047344
 30
0.0
 10
-7.701552366238555
 20
-164.3177156185589
 30
0.0
 10
-8.979824124695126
 20
-163.3470619637072
 30
0.0
 10
-10.15474995626348
 20
-162.2403309319782
 30
0.0
 10
-11.21987534818572
 20
-161.0082707547477
 30
0.0
 10
-12.12864591935682
 20
-159.6430211037801
 30
0.0
 10
-12.91646074781286
 20
-158.1795340648377
 30
0.0
 10
-13.54273921837942
 20
-156.5956413138202
 30
0.0
 10
-14.04535445210999
 20
-154.9076390775609
 30
0.0
 10
-14.3879319375573
 20
-153.1058144529379
 30
0.0
 10
-14.60410631139142
 20
-151.1951265419408
 30
0.0
 10
-14.62849426021826
 20
-149.884025893135
 30
0.0
 10
-14.64102564102561
 20
-149.2103365384616
 30
0.0
  0
SPLINE
  5
74
330
1F
100
AcDbEntity
  8
0
  6
Continuous
 62
     7
370
    25
100
AcDbSpline
210
0.0
220
0.0
230
1.0
 70
     8
 71
     3
 72
    15
 73
    11
 74
     0
 42
0.000000001
 43
0.00000001
 40
0.0
 40
0.0
 40
0.0
 40
0.0
 40
0.14262615154226
 40
0.2800993511265091
 40
0.4117975844046409
 40
0.538153649343745
 40
0.6600017344692812
 40
0.7770416678297323
 40
0.8906369401986713
 40
1.0
 40
1.0
 40
1.0
 40
1.0
 10
-14.64102564102561
 20
-149.2103365384616
 30
0.0
 10
-14.63854883400387
 20
-148.7778209832464
 30
0.0
 10
-14.63368470472496
 20
-147.9284162628786
 30
0.0
 10
-14.54940063266167
 20
-146.6823076497657
 30
0.0
 10
-14.43830765941781
 20
-145.4878660165438
 30
0.0
 10
-14.25739293121336
 20
-144.3497895436398
 30
0.0
 10
-14.04457116110084
 20
-143.2627516430098
 30
0.0
 10
-13.77838761049214
 20
-142.2270749824037
 30
0.0
 10
-13.45773069100172
 20
-141.2463916526853
 30
0.0
 10
-13.20264557406874
 20
-140.6202359463264
 30
0.0
 10
-13.07752403846151
 20
-140.3131009615385
 30
0.0
  0
SPLINE
  5
75
330
1F
100
AcDbEntity
  8
0
  6
Continuous
 62
     7
370
    25
100
AcDbSpline
210
0.0
220
0.0
230
1.0
 70
     8
 71
     3
 72
    15
 73
    11
 74
     0
 42
0.000000001
 43
0.00000001
 40
0.0
 40
0.0
 40
0.0
 40
0.0
 40
0.1289215373618021
 40
0.2563267466608056
 40
0.3846448172237175
 40
0.5135891002271138
 40
0.6409605447585061
 40
0.7639208634480431
 40
0.883100805049367
 40
1.0
 40
1.0
 40
1.0
 40
1.0
 10
-13.07752403846151
 20
-140.3131009615385
 30
0.0
 10
-12.87299781221944
 20
-139.8764730049518
 30
0.0
 10
-12.46635092255107
 20
-139.0083525504234
 30
0.0
 10
-11.71114373600413
 20
-137.781628558714
 30
0.0
 10
-10.85516091718312
 20
-136.6247284401569
 30
0.0
 10
-9.905449539338496
 20
-135.5437171398904
 30
0.0
 10
-8.886256033393344
 20
-134.5548686785465
 30
0.0
 10
-7.792772318456929
 20
-133.7085567768856
 30
0.0
 10
-6.663846587486289
 20
-132.9761996848111
 30
0.0
 10
-5.860924097617278
 20
-132.6078675962107
 30
0.0
 10
-5.463341346153817
 20
-132.4254807692308
 30
0.0
  0
SPLINE
  5
76
330
1F
100
AcDbEntity
  8
0
  6
Continuous
 62
     7
370
    25
100
AcDbSpline
210
0.0
220
0.0
230
1.0
 70
     8
 71
     3
 72
    15
 73
    11
 74
     0
 42
0.000000001
 43
0.00000001
 40
0.0
 40
0.0
 40
0.0
 40
0.0
 40
0.1158241924591698
 40
0.2341102253589447
 40
0.3541063671011452
 40
0.4766281976476594
 40
0.6025209091549574
 40
0.7314662747694703
 40
0.8635307390411593
 40
1.0
 40
1.0
 40
1.0
 40
1.0
 10
-5.463341346153816
 20
-132.4254807692308
 30
0.0
 10
-5.193463663704557
 20
-132.3147829656667
 30
0.0
 10
-4.647972055120119
 20
-132.0910344793713
 30
0.0
 10
-3.800213886566581
 20
-131.8117846445741
 30
0.0
 10
-2.920289375373839
 20
-131.5849067762665
 30
0.0
 10
-2.014562959790093
 20
-131.3821043956887
 30
0.0
 10
-1.074240792136487
 20
-131.2422654810856
 30
0.0
 10
-0.1069210690171726
 20
-131.125015358483
 30
0.0
 10
0.8926900220628836
 20
-131.0635625291501
 30
0.0
 10
1.568839638678238
 20
-131.0554200645709
 30
0.0
 10
1.912459935897465
 20
-131.0512820512821
 30
0.0
  0
SPLINE
  5
77
330
1F
100
AcDbEntity
  8
0
  6
Continuous
 62
     7
370
    25
100
AcDbSpline
210
0.0
220
0.0
230
1.0
 70
     8
 71
     3
 72
    23
 73
    19
 74
     0
 42
0.000000001
 43
0.00000001
 40
0.0
 40
0.0
 40
0.0
 40
0.0
 40
0.0665400640507846
 40
0.130219819890614
 40
0.1913624935544197
 40
0.250596308078881
 40
0.3086297010580007
 40
0.366331271590809
 40
0.4240677149839986
 40
0.4827231858845209
 40
0.5418916992337877
 40
0.6014160672407123
 40
0.6616834884881394
 40
0.7235043189950452
 40
0.7879843129881483
 40
0.8552084446109358
 40
0.9256388080984231
 40
1.0
 40
1.0
 40
1.0
 40
1.0
 10
1.912459935897465
 20
-131.0512820512821
 30
0.0
 10
2.527738688025021
 20
-131.0667050692894
 30
0.0
 10
3.731847662483203
 20
-131.0968881275076
 30
0.0
 10
5.490712742548668
 20
-131.3148967674356
 30
0.0
 10
7.155133142508592
 20
-131.6830244259593
 30
0.0
 10
8.719474769969631
 20
-132.215105342277
 30
0.0
 10
10.1972248962764
 20
-132.8802180357675
 30
0.0
 10
11.57690227972231
 20
-133.7052145917609
 30
0.0
 10
12.86054887419093
 20
-134.681166025523
 30
0.0
 10
14.04568537988169
 20
-135.794688908732
 30
0.0
 10
15.11298569048093
 20
-137.0438426528495
 30
0.0
 10
16.0425155925157
 20
-138.4169582942366
 30
0.0
 10
16.82226551204706
 20
-139.9076012904961
 30
0.0
 10
17.46443459195562
 20
-141.5116588885122
 30
0.0
 10
17.95789313923147
 20
-143.2343704450921
 30
0.0
 10
18.31441648235602
 20
-145.0708751610533
 30
0.0
 10
18.52622021035483
 20
-147.0225257686865
 30
0.0
 10
18.55124862085276
 20
-148.3614445337263
 30
0.0
 10
18.5641025641026
 20
-149.0490785256411
 30
0.0
  0
SPLINE
  5
78
330
1F
100
AcDbEntity
  8
0
  6
Continuous
 62
     7
370
    25
100
AcDbSpline
210
0.0
220
0.0
230
1.0
 70
     8
 71
     3
 72
    23
 73
    19
 74
     0
 42
0.000000001
 43
0.00000001
 40
0.0
 40
0.0
 40
0.0
 40
0.0
 40
0.0742781575154443
 40
0.1446056953447741
 40
0.2116665489040636
 40
0.2757829847344842
 40
0.3378630989026515
 40
0.398250193305316
 40
0.4576199657532422
 40
0.516768332552388
 40
0.5753898524094093
 40
0.633100216613373
 40
0.690913523227109
 40
0.7490473499756157
 40
0.8082977970289342
 40
0.8695420013312246
 40
0.9333335288084028
 40
1.0
 40
1.0
 40
1.0
 40
1.0
 10
18.5641025641026
 20
-149.0490785256411
 30
0.0
 10
18.55154550771748
 20
-149.7321080238306
 30
0.0
 10
18.527099264962
 20
-151.0618388468678
 30
0.0
 10
18.31134208999094
 20
-152.9981747693029
 30
0.0
 10
17.96959968002034
 20
-154.8212913125607
 30
0.0
 10
17.46420140118947
 20
-156.5270238154576
 30
0.0
 10
16.84119837385709
 20
-158.1283881557916
 30
0.0
 10
16.05342463332552
 20
-159.6063108065202
 30
0.0
 10
15.14336189074896
 20
-160.9803954393058
 30
0.0
 10
14.0775774850851
 20
-162.2160885729261
 30
0.0
 10
12.91238749922991
 20
-163.3360019675277
 30
0.0
 10
11.63036914574882
 20
-164.300546983491
 30
0.0
 10
10.26073513493855
 20
-165.1266613669802
 30
0.0
 10
8.791041979995207
 20
-165.7936961301869
 30
0.0
 10
7.230868870495287
 20
-166.3148190285801
 30
0.0
 10
5.575124286486544
 20
-166.6857754782845
 30
0.0
 10
3.822959038975772
 20
-166.9029451923671
 30
0.0
 10
2.623541649810069
 20
-166.9332378404149
 30
0.0
 10
2.010616987179518
 20
-166.948717948718
 30
0.0
  0
LINE
  5
79
330
1F
100
AcDbEntity
  8
0
  6
Continuous
 62
     7
370
    25
100
AcDbLine
 10
60.7435897436
 20
-166.5
 30
0.0
 11
54.0128205128
 21
-166.5
 31
0.0
  0
LINE
  5
7A
330
1F
100
AcDbEntity
  8
0
  6
Continuous
 62
     7
370
    25
100
AcDbLine
 10
54.0128205128
 20
-166.5
 30
0.0
 11
54.0128205128
 21
-159.7692307692
 31
0.0
  0
LINE
  5
7B
330
1F
100
AcDbEntity
  8
0
  6
Continuous
 62
     7
370
    25
100
AcDbLine
 10
54.0128205128
 20
-159.7692307692
 30
0.0
 11
60.7435897436
 21
-159.7692307692
 31
0.0
  0
LINE
  5
7C
330
1F
100
AcDbEntity
  8
0
  6
Continuous
 62
     7
370
    25
100
AcDbLine
 10
60.7435897436
 20
-159.7692307692
 30
0.0
 11
60.7435897436
 21
-166.5
 31
0.0
  0
CIRCLE
  5
7D
330
1F
100
AcDbEntity
  8
0
  6
Continuous
 62
     7
370
    25
100
AcDbCircle
 10
-99.0
 20
-297.75
 30
0.0
 40
1.500000000000014
  0
CIRCLE
  5
7E
330
1F
100
AcDbEntity
  8
0
  6
Continuous
 62
     7
370
    25
100
AcDbCircle
 10
-59.4
 20
-297.75
 30
0.0
 40
1.499999999999993
  0
CIRCLE
  5
7F
330
1F
100
AcDbEntity
  8
0
  6
Continuous
 62
     7
370
    25
100
AcDbCircle
 10
-19.8
 20
-297.75
 30
0.0
 40
1.499999999999996
  0
CIRCLE
  5
80
330
1F
100
AcDbEntity
  8
0
  6
Continuous
 62
     7
370
    25
100
AcDbCircle
 10
19.8
 20
-297.75
 30
0.0
 40
1.499999999999996
  0
CIRCLE
  5
81
330
1F
100
AcDbEntity
  8
0
  6
Continuous
 62
     7
370
    25
100
AcDbCircle
 10
59.4
 20
-297.75
 30
0.0
 40
1.499999999999993
  0
CIRCLE
  5
82
330
1F
100
AcDbEntity
  8
0
  6
Continuous
 62
     7
370
    25
100
AcDbCircle
 10
99.0
 20
-297.75
 30
0.0
 40
1.5
  0
LINE
  5
83
330
1F
100
AcDbEntity
  8
0
  6
Continuous
 62
     7
370
    25
100
AcDbLine
 10
115.0
 20
-100.75
 30
0.0
 11
115.0
 21
-65.75
 31
0.0
  0
LINE
  5
84
330
1F
100
AcDbEntity
  8
0
  6
Continuous
 62
     7
370
    25
100
AcDbLine
 10
109.0
 20
-100.75
 30
0.0
 11
115.0
 21
-100.75
 31
0.0
  0
LINE
  5
85
330
1F
100
AcDbEntity
  8
0
  6
Continuous
 62
     7
370
    25
100
AcDbLine
 10
109.0
 20
-65.75
 30
0.0
 11
109.0
 21
-100.75
 31
0.0
  0
LINE
  5
86
330
1F
100
AcDbEntity
  8
0
  6
Continuous
 62
     7
370
    25
100
AcDbLine
 10
115.0
 20
-65.75
 30
0.0
 11
109.0
 21
-65.75
 31
0.0
  0
CIRCLE
  5
87
330
1F
100
AcDbEntity
  8
0
  6
Continuous
 62
     7
370
    25
100
AcDbCircle
 10
72.5
 20
3.0
 30
0.0
 40
2.450000000000003
  0
CIRCLE
  5
88
330
1F
100
AcDbEntity
  8
0
  6
Continuous
 62
     7
370
    25
100
AcDbCircle
 10
112.0
 20
-20.0
 30
0.0
 40
2.450000000000003
  0
CIRCLE
  5
89
330
1F
100
AcDbEntity
  8
0
  6
Continuous
 62
     7
370
    25
100
AcDbCircle
 10
112.0
 20
-146.5
 30
0.0
 40
2.450000000000003
  0
CIRCLE
  5
8A
330
1F
100
AcDbEntity
  8
0
  6
Continuous
 62
     7
370
    25
100
AcDbCircle
 10
112.0
 20
-273.0
 30
0.0
 40
2.450000000000003
  0
CIRCLE
  5
8B
330
1F
100
AcDbEntity
  8
0
  6
Continuous
 62
     7
370
    25
100
AcDbCircle
 10
-112.0
 20
-273.0
 30
0.0
 40
2.450000000000003
  0
CIRCLE
  5
8C
330
1F
100
AcDbEntity
  8
0
  6
Continuous
 62
     7
370
    25
100
AcDbCircle
 10
-112.0
 20
-146.5
 30
0.0
 40
2.450000000000003
  0
CIRCLE
  5
8D
330
1F
100
AcDbEntity
  8
0
  6
Continuous
 62
     7
370
    25
100
AcDbCircle
 10
-112.0
 20
-20.0
 30
0.0
 40
2.450000000000003
  0
CIRCLE
  5
8E
330
1F
100
AcDbEntity
  8
0
  6
Continuous
 62
     7
370
    25
100
AcDbCircle
 10
-72.5
 20
3.0
 30
0.0
 40
2.450000000000003
  0
LINE
  5
8F
330
1F
100
AcDbEntity
  8
0
  6
Continuous
 62
     7
370
    25
100
AcDbLine
 10
-56.3333333333
 20
6.0
 30
0.0
 11
-56.3333333333
 21
0.0
 31
0.0
  0
LINE
  5
90
330
1F
100
AcDbEntity
  8
0
  6
Continuous
 62
     7
370
    25
100
AcDbLine
 10
-26.3333333333
 20
6.0
 30
0.0
 11
-56.3333333333
 21
6.0
 31
0.0
  0
LINE
  5
91
330
1F
100
AcDbEntity
  8
0
  6
Continuous
 62
     7
370
    25
100
AcDbLine
 10
-26.3333333333
 20
0.0
 30
0.0
 11
-26.3333333333
 21
6.0
 31
0.0
  0
LINE
  5
92
330
1F
100
AcDbEntity
  8
0
  6
Continuous
 62
     7
370
    25
100
AcDbLine
 10
-56.3333333333
 20
0.0
 30
0.0
 11
-26.3333333333
 21
0.0
 31
0.0
  0
LINE
  5
93
330
1F
100
AcDbEntity
  8
0
  6
Continuous
 62
     7
370
    25
100
AcDbLine
 10
-115.0
 20
-227.25
 30
0.0
 11
-109.0
 21
-227.25
 31
0.0
  0
LINE
  5
94
330
1F
100
AcDbEntity
  8
0
  6
Continuous
 62
     7
370
    25
100
AcDbLine
 10
-115.0
 20
-192.25
 30
0.0
 11
-115.0
 21
-227.25
 31
0.0
  0
LINE
  5
95
330
1F
100
AcDbEntity
  8
0
  6
Continuous
 62
     7
370
    25
100
AcDbLine
 10
-109.0
 20
-192.25
 30
0.0
 11
-115.0
 21
-192.25
 31
0.0
  0
LINE
  5
96
330
1F
100
AcDbEntity
  8
0
  6
Continuous
 62
     7
370
    25
100
AcDbLine
 10
-109.0
 20
-227.25
 30
0.0
 11
-109.0
 21
-192.25
 31
0.0
  0
LINE
  5
97
330
1F
100
AcDbEntity
  8
0
  6
Continuous
 62
     7
370
    25
100
AcDbLine
 10
-29.2320508076
 20
9.0
 30
0.0
 11
-115.0
 21
9.0
 31
0.0
  0
ARC
  5
98
330
1F
100
AcDbEntity
  8
0
  6
Continuous
 62
     7
370
    25
100
AcDbCircle
 10
-115.0
 20
6.0
 30
0.0
 40
3.000000000000014
100
AcDbArc
 50
90.0
 51
180.0
  0
LINE
  5
99
330
1F
100
AcDbEntity
  8
0
  6
Continuous
 62
     7
370
    25
100
AcDbLine
 10
-118.0
 20
6.0
 30
0.0
 11
-118.0
 21
-299.0
 31
0.0
  0
ARC
  5
9A
330
1F
100
AcDbEntity
  8
0
  6
Continuous
 62
     7
370
    25
100
AcDbCircle
 10
-115.0
 20
-299.0
 30
0.0
 40
3.0
100
AcDbArc
 50
180.0
 51
270.0
  0
LINE
  5
9B
330
1F
100
AcDbEntity
  8
0
  6
Continuous
 62
     7
370
    25
100
AcDbLine
 10
-115.0
 20
-302.0
 30
0.0
 11
115.0
 21
-302.0
 31
0.0
  0
ARC
  5
9C
330
1F
100
AcDbEntity
  8
0
  6
Continuous
 62
     7
370
    25
100
AcDbCircle
 10
115.0
 20
-299.0
 30
0.0
 40
3.000000000000014
100
AcDbArc
 50
270.0
 51
0.0
  0
LINE
  5
9D
330
1F
100
AcDbEntity
  8
0
  6
Continuous
 62
     7
370
    25
100
AcDbLine
 10
118.0
 20
-299.0
 30
0.0
 11
118.0
 21
6.0
 31
0.0
  0
ARC
  5
9E
330
1F
100
AcDbEntity
  8
0
  6
Continuous
 62
     7
370
    25
100
AcDbCircle
 10
115.0
 20
6.0
 30
0.0
 40
3.000000000000014
100
AcDbArc
 50
0.0
 51
90.0
  0
LINE
  5
9F
330
1F
100
AcDbEntity
  8
0
  6
Continuous
 62
     7
370
    25
100
AcDbLine
 10
115.0
 20
9.0
 30
0.0
 11
29.2320508076
 21
9.0
 31
0.0
  0
LINE
  5
A0
330
1F
100
AcDbEntity
  8
0
  6
Continuous
 62
     7
370
    25
100
AcDbLine
 10
29.2320508076
 20
9.0
 30
0.0
 11
27.5
 21
12.0
 31
0.0
  0
LINE
  5
A1
330
1F
100
AcDbEntity
  8
0
  6
Continuous
 62
     7
370
    25
100
AcDbLine
 10
27.5
 20
12.0
 30
0.0
 11
-27.5
 21
12.0
 31
0.0
  0
LINE
  5
A2
330
1F
100
AcDbEntity
  8
0
  6
Continuous
 62
     7
370
    25
100
AcDbLine
 10
-27.5
 20
12.0
 30
0.0
 11
-29.2320508076
 21
9.0
 31
0.0
  0
LINE
  5
A3
330
1F
100
AcDbEntity
  8
0
  6
Continuous
 62
     7
370
    25
100
AcDbLine
 10
-115.0
 20
-100.75
 30
0.0
 11
-109.0
 21
-100.75
 31
0.0
  0
LINE
  5
A4
330
1F
100
AcDbEntity
  8
0
  6
Continuous
 62
     7
370
    25
100
AcDbLine
 10
-115.0
 20
-65.75
 30
0.0
 11
-115.0
 21
-100.75
 31
0.0
  0
LINE
  5
A5
330
1F
100
AcDbEntity
  8
0
  6
Continuous
 62
     7
370
    25
100
AcDbLine
 10
-109.0
 20
-65.75
 30
0.0
 11
-115.0
 21
-65.75
 31
0.0
  0
LINE
  5
A6
330
1F
100
AcDbEntity
  8
0
  6
Continuous
 62
     7
370
    25
100
AcDbLine
 10
-109.0
 20
-100.75
 30
0.0
 11
-109.0
 21
-65.75
 31
0.0
  0
LINE
  5
A7
330
1F
100
AcDbEntity
  8
0
  6
Continuous
 62
     7
370
    25
100
AcDbLine
 10
115.0
 20
-227.25
 30
0.0
 11
115.0
 21
-192.25
 31
0.0
  0
LINE
  5
A8
330
1F
100
AcDbEntity
  8
0
  6
Continuous
 62
     7
370
    25
100
AcDbLine
 10
109.0
 20
-227.25
 30
0.0
 11
115.0
 21
-227.25
 31
0.0
  0
LINE
  5
A9
330
1F
100
AcDbEntity
  8
0
  6
Continuous
 62
     7
370
    25
100
AcDbLine
 10
109.0
 20
-192.25
 30
0.0
 11
109.0
 21
-227.25
 31
0.0
  0
LINE
  5
AA
330
1F
100
AcDbEntity
  8
0
  6
Continuous
 62
     7
370
    25
100
AcDbLine
 10
115.0
 20
-192.25
 30
0.0
 11
109.0
 21
-192.25
 31
0.0
  0
LINE
  5
AB
330
1F
100
AcDbEntity
  8
0
  6
Continuous
 62
     7
370
    25
100
AcDbLine
 10
56.3333333333
 20
6.0
 30
0.0
 11
26.3333333333
 21
6.0
 31
0.0
  0
LINE
  5
AC
330
1F
100
AcDbEntity
  8
0
  6
Continuous
 62
     7
370
    25
100
AcDbLine
 10
56.3333333333
 20
0.0
 30
0.0
 11
56.3333333333
 21
6.0
 31
0.0
  0
LINE
  5
AD
330
1F
100
AcDbEntity
  8
0
  6
Continuous
 62
     7
370
    25
100
AcDbLine
 10
26.3333333333
 20
0.0
 30
0.0
 11
56.3333333333
 21
0.0
 31
0.0
  0
LINE
  5
AE
330
1F
100
AcDbEntity
  8
0
  6
Continuous
 62
     7
370
    25
100
AcDbLine
 10
26.3333333333
 20
6.0
 30
0.0
 11
26.3333333333
 21
0.0
 31
0.0
  0
LINE
  5
AF
330
1F
100
AcDbEntity
  8
0
  6
Continuous
 62
     7
370
    25
100
AcDbLine
 10
39.2051282051
 20
-166.5
 30
0.0
 11
32.4743589744
 21
-166.5
 31
0.0
  0
LINE
  5
B0
330
1F
100
AcDbEntity
  8
0
  6
Continuous
 62
     7
370
    25
100
AcDbLine
 10
32.4743589744
 20
-166.5
 30
0.0
 11
32.4743589744
 21
-137.3333333333
 31
0.0
  0
LINE
  5
B1
330
1F
100
AcDbEntity
  8
0
  6
Continuous
 62
     7
370
    25
100
AcDbLine
 10
32.4743589744
 20
-137.3333333333
 30
0.0
 11
22.1538461538
 21
-137.3333333333
 31
0.0
  0
LINE
  5
B2
330
1F
100
AcDbEntity
  8
0
  6
Continuous
 62
     7
370
    25
100
AcDbLine
 10
22.1538461538
 20
-137.3333333333
 30
0.0
 11
22.1538461538
 21
-131.5
 31
0.0
  0
LINE
  5
B3
330
1F
100
AcDbEntity
  8
0
  6
Continuous
 62
     7
370
    25
100
AcDbLine
 10
22.1538461538
 20
-131.5
 30
0.0
 11
49.5256410256
 21
-131.5
 31
0.0
  0
LINE
  5
B4
330
1F
100
AcDbEntity
  8
0
  6
Continuous
 62
     7
370
    25
100
AcDbLine
 10
49.5256410256
 20
-131.5
 30
0.0
 11
49.5256410256
 21
-137.3333333333
 31
0.0
  0
LINE
  5
B5
330
1F
100
AcDbEntity
  8
0
  6
Continuous
 62
     7
370
    25
100
AcDbLine
 10
49.5256410256
 20
-137.3333333333
 30
0.0
 11
39.2051282051
 21
-137.3333333333
 31
0.0
  0
LINE
  5
B6
330
1F
100
AcDbEntity
  8
0
  6
Continuous
 62
     7
370
    25
100
AcDbLine
 10
39.2051282051
 20
-137.3333333333
 30
0.0
 11
39.2051282051
 21
-166.5
 31
0.0
  0
LINE
  5
B7
330
1F
100
AcDbEntity
  8
0
  6
Continuous
 62
     7
370
    25
100
AcDbLine
 10
-48.2948717949
 20
-166.5
 30
0.0
 11
-48.2948717949
 21
-131.5
 31
0.0
  0
LINE
  5
B8
330
1F
100
AcDbEntity
  8
0
  6
Continuous
 62
     7
370
    25
100
AcDbLine
 10
-48.2948717949
 20
-131.5
 30
0.0
 11
-35.4573317308
 21
-131.5
 31
0.0
  0
SPLINE
  5
B9
330
1F
100
AcDbEntity
  8
0
  6
Continuous
 62
     7
370
    25
100
AcDbSpline
210
0.0
220
0.0
230
1.0
 70
     8
 71
     3
 72
    15
 73
    11
 74
     0
 42
0.000000001
 43
0.00000001
 40
0.0
 40
0.0
 40
0.0
 40
0.0
 40
0.1574696105658199
 40
0.3066299103822051
 40
0.4453947960140396
 40
0.5739867641878383
 40
0.6944366174725872
 40
0.804897594991716
 40
0.9068122228658733
 40
1.0
 40
1.0
 40
1.0
 40
1.0
 10
-35.45733173076921
 20
-131.5000000000001
 30
0.0
 10
-35.10671766998274
 20
-131.499818237835
 30
0.0
 10
-34.42399064950307
 20
-131.499464304678
 30
0.0
 10
-33.43317500035002
 20
-131.5405687634727
 30
0.0
 10
-32.50663498583779
 20
-131.5819144423875
 30
0.0
 10
-31.64703000341198
 20
-131.6646794488886
 30
0.0
 10
-30.85137782450252
 20
-131.7514318515868
 30
0.0
 10
-30.11825067083777
 20
-131.8612669225157
 30
0.0
 10
-29.45227975384652
 20
-132.0020325867322
 30
0.0
 10
-29.0323188712932
 20
-132.1130431513732
 30
0.0
 10
-28.83173076923075
 20
-132.1660657051283
 30
0.0
  0
SPLINE
  5
BA
330
1F
100
AcDbEntity
  8
0
  6
Continuous
 62
     7
370
    25
100
AcDbSpline
210
0.0
220
0.0
230
1.0
 70
     8
 71
     3
 72
    27
 73
    23
 74
     0
 42
0.000000001
 43
0.00000001
 40
0.0
 40
0.0
 40
0.0
 40
0.0
 40
0.0372762267643674
 40
0.0738810207179329
 40
0.1103545287143088
 40
0.1467232662714372
 40
0.1828966250903322
 40
0.2192173669319848
 40
0.2559336817917083
 40
0.2930575088463313
 40
0.3682687811898583
 40
0.4447364886886376
 40
0.5234468212464659
 40
0.6049973803061209
 40
0.6475045893007714
 40
0.6917904955187589
 40
0.7379614364513357
 40
0.7861112620758212
 40
0.8363227274274193
 40
0.8886688105842216
 40
0.9431989293048109
 40
1.0
 40
1.0
 40
1.0
 40
1.0
 10
-28.83173076923075
 20
-132.1660657051282
 30
0.0
 10
-28.58088309100336
 20
-132.2478208774703
 30
0.0
 10
-28.08370609319957
 20
-132.4098586185696
 30
0.0
 10
-27.35482932235618
 20
-132.6937757192074
 30
0.0
 10
-26.66425653292286
 20
-133.0458901835601
 30
0.0
 10
-25.98636829493053
 20
-133.4160279910647
 30
0.0
 10
-25.35142747714567
 20
-133.8536728956569
 30
0.0
 10
-24.72583176295179
 20
-134.3089838379838
 30
0.0
 10
-24.15018131498432
 20
-134.8364139304754
 30
0.0
 10
-23.39528978206156
 20
-135.5735322146869
 30
0.0
 10
-22.53390116156668
 20
-136.6003613008743
 30
0.0
 10
-21.63146532321705
 20
-137.9623984831088
 30
0.0
 10
-20.8676431972548
 20
-139.4574216792711
 30
0.0
 10
-20.34576480582761
 20
-140.7969104098368
 30
0.0
 10
-19.99337225196177
 20
-141.9355889771838
 30
0.0
 10
-19.76301708337141
 20
-142.848520458378
 30
0.0
 10
-19.56734438163918
 20
-143.8101773394556
 30
0.0
 10
-19.40669648757899
 20
-144.8208020524135
 30
0.0
 10
-19.28187769836836
 20
-145.8803947353545
 30
0.0
 10
-19.18894878102239
 20
-146.9886729644521
 30
0.0
 10
-19.14368302518186
 20
-148.1465941401714
 30
0.0
 10
-19.13343411352778
 20
-148.9345328531163
 30
0.0
 10
-19.1282051282051
 20
-149.3365384615385
 30
0.0
  0
SPLINE
  5
BB
330
1F
100
AcDbEntity
  8
0
  6
Continuous
 62
     7
370
    25
100
AcDbSpline
210
0.0
220
0.0
230
1.0
 70
     8
 71
     3
 72
    11
 73
     7
 74
     0
 42
0.000000001
 43
0.00000001
 40
0.0
 40
0.0
 40
0.0
 40
0.0
 40
0.2758019848605566
 40
0.5333955013403352
 40
0.7740733405834398
 40
0.9999999999999999
 40
0.9999999999999999
 40
0.9999999999999999
 40
0.9999999999999999
 10
-19.1282051282051
 20
-149.3365384615385
 30
0.0
 10
-19.13775042735816
 20
-150.0313275422855
 30
0.0
 10
-19.15621084427563
 20
-151.375035674909
 30
0.0
 10
-19.3700759490094
 20
-153.3140009011062
 30
0.0
 10
-19.6782825815147
 20
-155.1149477480166
 30
0.0
 10
-20.02569538732697
 20
-156.238456691323
 30
0.0
 10
-20.19391025641023
 20
-156.782451923077
 30
0.0
  0
SPLINE
  5
BC
330
1F
100
AcDbEntity
  8
0
  6
Continuous
 62
     7
370
    25
100
AcDbSpline
210
0.0
220
0.0
230
1.0
 70
     8
 71
     3
 72
    15
 73
    11
 74
     0
 42
0.000000001
 43
0.00000001
 40
0.0
 40
0.0
 40
0.0
 40
0.0
 40
0.1363605765562419
 40
0.2682425272755304
 40
0.3968880754975264
 40
0.5226633583095593
 40
0.6451504626695782
 40
0.7648322926185556
 40
0.8829612383103126
 40
1.0
 40
1.0
 40
1.0
 40
1.0
 10
-20.19391025641023
 20
-156.782451923077
 30
0.0
 10
-20.3049878063583
 20
-157.0946082461103
 30
0.0
 10
-20.52349467596922
 20
-157.7086684320539
 30
0.0
 10
-20.90586531365201
 20
-158.5944532641462
 30
0.0
 10
-21.31901948806102
 20
-159.437408542073
 30
0.0
 10
-21.76638414766046
 20
-160.2368701208229
 30
0.0
 10
-22.25021950944099
 20
-160.9892420014617
 30
0.0
 10
-22.77233528312814
 20
-161.6922737942192
 30
0.0
 10
-23.3246382747371
 20
-162.3552211274139
 30
0.0
 10
-23.72474983706342
 20
-162.7632683497393
 30
0.0
 10
-23.92387820512818
 20
-162.9663461538462
 30
0.0
  0
SPLINE
  5
BD
330
1F
100
AcDbEntity
  8
0
  6
Continuous
 62
     7
370
    25
100
AcDbSpline
210
0.0
220
0.0
230
1.0
 70
     8
 71
     3
 72
    11
 73
     7
 74
     0
 42
0.000000001
 43
0.00000001
 40
0.0
 40
0.0
 40
0.0
 40
0.0
 40
0.2270350729738574
 40
0.4681786832881871
 40
0.7237288250741942
 40
1.0
 40
1.0
 40
1.0
 40
1.0
 10
-23.92387820512818
 20
-162.9663461538462
 30
0.0
 10
-24.24611601489072
 20
-163.2561371490898
 30
0.0
 10
-24.9106163121539
 20
-163.8537274896692
 30
0.0
 10
-26.08157963919578
 20
-164.5932694181415
 30
0.0
 10
-27.40509746774172
 20
-165.2467489975956
 30
0.0
 10
-28.36244934207976
 20
-165.5824306107583
 30
0.0
 10
-28.85977564102561
 20
-165.7568108974359
 30
0.0
  0
SPLINE
  5
BE
330
1F
100
AcDbEntity
  8
0
  6
Continuous
 62
     7
370
    25
100
AcDbSpline
210
0.0
220
0.0
230
1.0
 70
     8
 71
     3
 72
    15
 73
    11
 74
     0
 42
0.000000001
 43
0.00000001
 40
0.0
 40
0.0
 40
0.0
 40
0.0
 40
0.0998912330715304
 40
0.2073190855916398
 40
0.3208499521726009
 40
0.4423161564938725
 40
0.5701691198816109
 40
0.705421722366306
 40
0.8494105530036895
 40
1.0
 40
1.0
 40
1.0
 40
1.0
 10
-28.85977564102561
 20
-165.7568108974359
 30
0.0
 10
-29.05997471629645
 20
-165.8182979953348
 30
0.0
 10
-29.47547753816793
 20
-165.9459112855115
 30
0.0
 10
-30.13429823228606
 20
-166.0822049192163
 30
0.0
 10
-30.83760585151187
 20
-166.2257916099362
 30
0.0
 10
-31.59351050794513
 20
-166.3122904481776
 30
0.0
 10
-32.39416554391615
 20
-166.4035073002105
 30
0.0
 10
-33.24595144575785
 20
-166.4547204641661
 30
0.0
 10
-34.14591551697285
 20
-166.4910788352493
 30
0.0
 10
-34.76317880655036
 20
-166.4969821862817
 30
0.0
 10
-35.07872596153844
 20
-166.5
 30
0.0
  0
LINE
  5
BF
330
1F
100
AcDbEntity
  8
0
  6
Continuous
 62
     7
370
    25
100
AcDbLine
 10
-35.0787259615
 20
-166.5
 30
0.0
 11
-48.2948717949
 21
-166.5
 31
0.0
  0
LINE
  5
C0
330
1F
100
AcDbEntity
  8
0
  6
Continuous
 62
     7
370
    25
100
AcDbLine
 10
-38.2337740385
 20
-137.3333333333
 30
0.0
 11
-41.5641025641
 21
-137.3333333333
 31
0.0
  0
LINE
  5
C1
330
1F
100
AcDbEntity
  8
0
  6
Continuous
 62
     7
370
    25
100
AcDbLine
 10
-41.5641025641
 20
-137.3333333333
 30
0.0
 11
-41.5641025641
 21
-160.6666666667
 31
0.0
  0
LINE
  5
C2
330
1F
100
AcDbEntity
  8
0
  6
Continuous
 62
     7
370
    25
100
AcDbLine
 10
-41.5641025641
 20
-160.6666666667
 30
0.0
 11
-36.0252403846
 21
-160.6666666667
 31
0.0
  0
SPLINE
  5
C3
330
1F
100
AcDbEntity
  8
0
  6
Continuous
 62
     7
370
    25
100
AcDbSpline
210
0.0
220
0.0
230
1.0
 70
     8
 71
     3
 72
    15
 73
    11
 74
     0
 42
0.000000001
 43
0.00000001
 40
0.0
 40
0.0
 40
0.0
 40
0.0
 40
0.1666730984235038
 40
0.3209093864531079
 40
0.464346220789533
 40
0.593863422660703
 40
0.7127439520709975
 40
0.820940006687651
 40
0.9156866052628332
 40
1.0
 40
1.0
 40
1.0
 40
1.0
 10
-36.02524038461536
 20
-160.6666666666667
 30
0.0
 10
-35.77517527800675
 20
-160.6646834794582
 30
0.0
 10
-35.29370441861709
 20
-160.6608650864702
 30
0.0
 10
-34.59700375644129
 20
-160.6496452026155
 30
0.0
 10
-33.9567417047663
 20
-160.6192708461068
 30
0.0
 10
-33.36956418661504
 20
-160.5878079666383
 30
0.0
 10
-32.83699984875203
 20
-160.535825781807
 30
0.0
 10
-32.35673141710117
 20
-160.4846993211846
 30
0.0
 10
-31.9314323053734
 20
-160.413174473146
 30
0.0
 10
-31.668757121871
 20
-160.3567137034912
 30
0.0
 10
-31.54507211538459
 20
-160.3301282051282
 30
0.0
  0
SPLINE
  5
C4
330
1F
100
AcDbEntity
  8
0
  6
Continuous
 62
     7
370
    25
100
AcDbSpline
210
0.0
220
0.0
230
1.0
 70
     8
 71
     3
 72
    23
 73
    19
 74
     0
 42
0.000000001
 43
0.00000001
 40
0.0
 40
0.0
 40
0.0
 40
0.0
 40
0.0649179373822842
 40
0.1264430184700146
 40
0.1858787280862198
 40
0.2430165727154072
 40
0.3024911221532582
 40
0.36936372979817
 40
0.4445722554588898
 40
0.5291777480802886
 40
0.5755169774892701
 40
0.6254051839338141
 40
0.6788683432357706
 40
0.7356051207068719
 40
0.7961888432153381
 40
0.8601411452603571
 40
0.9280644712954987
 40
1.0
 40
1.0
 40
1.0
 40
1.0
 10
-31.54507211538459
 20
-160.3301282051282
 30
0.0
 10
-31.25538780871887
 20
-160.2528260614003
 30
0.0
 10
-30.69115919001659
 20
-160.1022618755788
 30
0.0
 10
-29.89892516766157
 20
-159.7666109728957
 30
0.0
 10
-29.18205544374426
 20
-159.3616848781904
 30
0.0
 10
-28.52854464564162
 20
-158.8747786598568
 30
0.0
 10
-27.93959614089542
 20
-158.2594418140259
 30
0.0
 10
-27.43685659735253
 20
-157.4724742406531
 30
0.0
 10
-26.97158440164131
 20
-156.5339043851313
 30
0.0
 10
-26.65296589218755
 20
-155.6354583124008
 30
0.0
 10
-26.42426213440913
 20
-154.8329872919207
 30
0.0
 10
-26.26944845524933
 20
-154.1594535604474
 30
0.0
 10
-26.14710338999341
 20
-153.4307581692318
 30
0.0
 10
-26.04187067745493
 20
-152.6497770187163
 30
0.0
 10
-25.95684014195092
 20
-151.8175144094926
 30
0.0
 10
-25.90393011957471
 20
-150.9309649045485
 30
0.0
 10
-25.86781870302081
 20
-149.9912137255405
 30
0.0
 10
-25.86197832232163
 20
-149.3459234567026
 30
0.0
 10
-25.85897435897433
 20
-149.0140224358975
 30
0.0
  0
SPLINE
  5
C5
330
1F
100
AcDbEntity
  8
0
  6
Continuous
 62
     7
370
    25
100
AcDbSpline
210
0.0
220
0.0
230
1.0
 70
     8
 71
     3
 72
    23
 73
    19
 74
     0
 42
0.000000001
 43
0.00000001
 40
0.0
 40
0.0
 40
0.0
 40
0.0
 40
0.0698747560471129
 40
0.1353605667671063
 40
0.196498751002488
 40
0.2538784601479325
 40
0.3075274503363313
 40
0.3570367068192331
 40
0.4031010463383042
 40
0.4452807002517027
 40
0.5232168988621614
 40
0.5960668013893813
 40
0.6640751781809331
 40
0.729158645848373
 40
0.7933280902254801
 40
0.85923950285576
 40
0.9276737124130603
 40
1.0
 40
1.0
 40
1.0
 40
1.0
 10
-25.85897435897433
 20
-149.0140224358975
 30
0.0
 10
-25.86195522109269
 20
-148.6821203949124
 30
0.0
 10
-25.86772971260609
 20
-148.0391636116557
 30
0.0
 10
-25.90378574292613
 20
-147.1064196588312
 30
0.0
 10
-25.95639856371232
 20
-146.2338308424737
 30
0.0
 10
-26.04203465668474
 20
-145.4203184959076
 30
0.0
 10
-26.14563609199118
 20
-144.6647583003852
 30
0.0
 10
-26.26941422225107
 20
-143.9665108657942
 30
0.0
 10
-26.42329466207869
 20
-143.3301585808692
 30
0.0
 10
-26.65219294673344
 20
-142.5741603145252
 30
0.0
 10
-26.9991909560847
 20
-141.7243947799737
 30
0.0
 10
-27.4713875264607
 20
-140.7953071006503
 30
0.0
 10
-28.05126116535227
 20
-140.0034195050424
 30
0.0
 10
-28.69196507419483
 20
-139.3154938097909
 30
0.0
 10
-29.43070750256767
 20
-138.7493657224186
 30
0.0
 10
-30.24849358658609
 20
-138.2752004787575
 30
0.0
 10
-31.16312886446814
 20
-137.9071720421168
 30
0.0
 10
-31.81373767215617
 20
-137.7504166580756
 30
0.0
 10
-32.14803685897434
 20
-137.6698717948718
 30
0.0
  0
SPLINE
  5
C6
330
1F
100
AcDbEntity
  8
0
  6
Continuous
 62
     7
370
    25
100
AcDbSpline
210
0.0
220
0.0
230
1.0
 70
     8
 71
     3
 72
    15
 73
    11
 74
     0
 42
0.000000001
 43
0.00000001
 40
0.0
 40
0.0
 40
0.0
 40
0.0
 40
0.0723423213137029
 40
0.1592701015872644
 40
0.261931766859312
 40
0.3782459773393722
 40
0.5116386268384625
 40
0.6587657585829492
 40
0.8219214622934529
 40
1.0
 40
1.0
 40
1.0
 40
1.0
 10
-32.14803685897434
 20
-137.6698717948718
 30
0.0
 10
-32.29273783295429
 20
-137.6429843280907
 30
0.0
 10
-32.61131399151611
 20
-137.5837884177592
 30
0.0
 10
-33.13996046759468
 20
-137.5146472508538
 30
0.0
 10
-33.76018057724799
 20
-137.4633385974936
 30
0.0
 10
-34.47513608139775
 20
-137.4109569669104
 30
0.0
 10
-35.28193206526052
 20
-137.381059182511
 30
0.0
 10
-36.18394435152059
 20
-137.3498559865582
 30
0.0
 10
-37.17739845157231
 20
-137.3391970316206
 30
0.0
 10
-37.87153026679928
 20
-137.335344065321
 30
0.0
 10
-38.23377403846152
 20
-137.3333333333334
 30
0.0
  0
SPLINE
  5
C7
330
1F
100
AcDbEntity
  8
0
  6
Continuous
 62
     7
370
    25
100
AcDbSpline
210
0.0
220
0.0
230
1.0
 70
     8
 71
     3
 72
    23
 73
    19
 74
     0
 42
0.000000001
 43
0.00000001
 40
0.0
 40
0.0
 40
0.0
 40
0.0
 40
0.0613748088654562
 40
0.1200583320570459
 40
0.1769548612527292
 40
0.2320078416007611
 40
0.2870267052462722
 40
0.3414536896627952
 40
0.3966202399723723
 40
0.453120753638829
 40
0.5108201435773203
 40
0.5703192328870481
 40
0.6320702036190713
 40
0.6971280464944818
 40
0.7660117405740856
 40
0.8390411306810435
 40
0.9168978021382902
 40
1.0
 40
1.0
 40
1.0
 40
1.0
 10
1.996594551282084
 20
-136.8846153846154
 30
0.0
 10
1.633842121212606
 20
-136.8939849725224
 30
0.0
 10
0.9242439569355683
 20
-136.9123132918601
 30
0.0
 10
-0.1130737167034114
 20
-137.057595739889
 30
0.0
 10
-1.097550046903575
 20
-137.2827619960435
 30
0.0
 10
-2.027261931908227
 20
-137.6191157487562
 30
0.0
 10
-2.903682492432897
 20
-138.0438782411702
 30
0.0
 10
-3.723570092069856
 20
-138.5706683947549
 30
0.0
 10
-4.493385187091284
 20
-139.1822580135156
 30
0.0
 10
-5.20104183168345
 20
-139.8926504786595
 30
0.0
 10
-5.845151487764347
 20
-140.6946452947384
 30
0.0
 10
-6.39808300627566
 20
-141.5988842590776
 30
0.0
 10
-6.869578604300987
 20
-142.5954919565281
 30
0.0
 10
-7.256413410095672
 20
-143.6874184360234
 30
0.0
 10
-7.543177620478112
 20
-144.8776675201807
 30
0.0
 10
-7.763579785904424
 20
-146.1582400113729
 30
0.0
 10
-7.887349467754897
 20
-147.5368866859902
 30
0.0
 10
-7.90245665222797
 20
-148.4879417405679
 30
0.0
 10
-7.91025641025638
 20
-148.9789663461539
 30
0.0
  0
SPLINE
  5
C8
330
1F
100
AcDbEntity
  8
0
  6
Continuous
 62
     7
370
    25
100
AcDbSpline
210
0.0
220
0.0
230
1.0
 70
     8
 71
     3
 72
    23
 73
    19
 74
     0
 42
0.000000001
 43
0.00000001
 40
0.0
 40
0.0
 40
0.0
 40
0.0
 40
0.0820969326512216
 40
0.1589791482869657
 40
0.231779065577798
 40
0.3006268378897704
 40
0.3659620193514544
 40
0.4283778806129999
 40
0.4891000786167891
 40
0.5482901332823408
 40
0.6060367369329572
 40
0.6621308268975248
 40
0.717440542822433
 40
0.7722249287341504
 40
0.8271625780159193
 40
0.8828348173381468
 40
0.9404697279605199
 40
1.0
 40
1.0
 40
1.0
 40
1.0
 10
-7.91025641025638
 20
-148.9789663461539
 30
0.0
 10
-7.903532455919065
 20
-149.4631088126747
 30
0.0
 10
-7.890511646259729
 20
-150.4006414888837
 30
0.0
 10
-7.751822783641058
 20
-151.7614474755952
 30
0.0
 10
-7.541351279774006
 20
-153.0336102287039
 30
0.0
 10
-7.231822015830952
 20
-154.2156858721289
 30
0.0
 10
-6.840790705300173
 20
-155.3085295506696
 30
0.0
 10
-6.361696286731123
 20
-156.3130554149265
 30
0.0
 10
-5.796518670356186
 20
-157.2307596067559
 30
0.0
 10
-5.130639503816898
 20
-158.0422680923351
 30
0.0
 10
-4.410210457409302
 20
-158.7667887491722
 30
0.0
 10
-3.632571573189996
 20
-159.3936818428319
 30
0.0
 10
-2.812215304584001
 20
-159.9332525505214
 30
0.0
 10
-1.934946999862889
 20
-160.3592417993739
 30
0.0
 10
-1.019024178231195
 20
-160.6973108739997
 30
0.0
 10
-0.0573307622722156
 20
-160.9479767125817
 30
0.0
 10
0.9549150172806862
 20
-161.0856168746816
 30
0.0
 10
1.645643440842488
 20
-161.1053555984807
 30
0.0
 10
1.996594551282083
 20
-161.1153846153847
 30
0.0
  0
SPLINE
  5
C9
330
1F
100
AcDbEntity
  8
0
  6
Continuous
 62
     7
370
    25
100
AcDbSpline
210
0.0
220
0.0
230
1.0
 70
     8
 71
     3
 72
    23
 73
    19
 74
     0
 42
0.000000001
 43
0.00000001
 40
0.0
 40
0.0
 40
0.0
 40
0.0
 40
0.0593220691590069
 40
0.1167554057922767
 40
0.1721357977646091
 40
0.226881306536432
 40
0.2807662566003148
 40
0.3353361635590121
 40
0.3909275077869033
 40
0.4479134609942576
 40
0.5064022894523192
 40
0.5667041355641919
 40
0.6292582381339417
 40
0.6951085518183586
 40
0.7643822137419023
 40
0.8380313303163676
 40
0.9166106442242499
 40
1.0
 40
1.0
 40
1.0
 40
1.0
 10
1.996594551282083
 20
-161.1153846153847
 30
0.0
 10
2.347592940675611
 20
-161.1055588014943
 30
0.0
 10
3.038414416848864
 20
-161.08622001402
 30
0.0
 10
4.049416453183833
 20
-160.9457656121328
 30
0.0
 10
5.013015690857384
 20
-160.7058438441519
 30
0.0
 10
5.925299820873411
 20
-160.369507177816
 30
0.0
 10
6.790426909095346
 20
-159.9367537386698
 30
0.0
 10
7.607643422248386
 20
-159.4092790733334
 30
0.0
 10
8.372238722386113
 20
-158.7795338896363
 30
0.0
 10
9.091883591342269
 20
-158.065538706809
 30
0.0
 10
9.739789078737608
 20
-157.2486402672259
 30
0.0
 10
10.30015466664588
 20
-156.3310944442738
 30
0.0
 10
10.7790130386601
 20
-155.3204761015144
 30
0.0
 10
11.17008552901606
 20
-154.2164071624533
 30
0.0
 10
11.47199721099284
 20
-153.0168103395753
 30
0.0
 10
11.67387886083198
 20
-151.7210509203408
 30
0.0
 10
11.81368922289127
 20
-150.3328338843058
 30
0.0
 10
11.82665692765441
 20
-149.3743060731278
 30
0.0
 10
11.83333333333337
 20
-148.8808092948719
 30
0.0
  0
SPLINE
  5
CA
330
1F
100
AcDbEntity
  8
0
  6
Continuous
 62
     7
370
    25
100
AcDbSpline
210
0.0
220
0.0
230
1.0
 70
     8
 71
     3
 72
    23
 73
    19
 74
     0
 42
0.000000001
 43
0.00000001
 40
0.0
 40
0.0
 40
0.0
 40
0.0
 40
0.0832710682633112
 40
0.1612623364240399
 40
0.2343312192377978
 40
0.3032984378176504
 40
0.3679163839974466
 40
0.4299187684626409
 40
0.488936855457412
 40
0.5464702210090694
 40
0.602792984855064
 40
0.6574652454128909
 40
0.7120504019421255
 40
0.7665541357856416
 40
0.8222254200489386
 40
0.8791225634628248
 40
0.9382064581732621
 40
1.0
 40
1.0
 40
1.0
 40
1.0
 10
11.83333333333337
 20
-148.8808092948718
 30
0.0
 10
11.8257922483227
 20
-148.3920774915541
 30
0.0
 10
11.81118822061709
 20
-147.4456019132832
 30
0.0
 10
11.68400222640648
 20
-146.0749098098782
 30
0.0
 10
11.47569506921057
 20
-144.7996910438068
 30
0.0
 10
11.18612510206338
 20
-143.6202759645901
 30
0.0
 10
10.80344019608143
 20
-142.536474526325
 30
0.0
 10
10.34636786399578
 20
-141.5453229664841
 30
0.0
 10
9.79370249289916
 20
-140.6519995059266
 30
0.0
 10
9.15986303217701
 20
-139.856966690608
 30
0.0
 10
8.45849048107908
 20
-139.1571845303111
 30
0.0
 10
7.701500922711658
 20
-138.5445552276639
 30
0.0
 10
6.884593413153056
 20
-138.0348104060961
 30
0.0
 10
6.015740832686548
 20
-137.6059292947117
 30
0.0
 10
5.085897525665744
 20
-137.2877439623509
 30
0.0
 10
4.104512871113492
 20
-137.0556622642324
 30
0.0
 10
3.068809621411355
 20
-136.9127459978922
 30
0.0
 10
2.359301136513691
 20
-136.8941313473792
 30
0.0
 10
1.996594551282083
 20
-136.8846153846154
 30
0.0
  0
ENDSEC
  0
SECTION
  2
OBJECTS
  0
DICTIONARY
  5
C
330
0
100
AcDbDictionary
281
     1
  3
ACAD_GROUP
350
D
  3
ACAD_LAYOUT
350
1A
  3
ACAD_MLINESTYLE
350
17
  3
ACAD_PLOTSETTINGS
350
19
  3
ACAD_PLOTSTYLENAME
350
E
  3
ACAD_SCALELIST
350
47
  0
DICTIONARY
  5
D
102
{ACAD_REACTORS
330
C
102
}
330
C
100
AcDbDictionary
281
     1
  0
DICTIONARY
  5
1A
102
{ACAD_REACTORS
330
C
102
}
330
C
100
AcDbDictionary
281
     1
  3
Layout1
350
1E
  3
Layout2
350
26
  3
Model
350
22
  0
DICTIONARY
  5
17
102
{ACAD_REACTORS
330
C
102
}
330
C
100
AcDbDictionary
281
     1
  3
Standard
350
18
  0
DICTIONARY
  5
19
102
{ACAD_REACTORS
330
C
102
}
330
C
100
AcDbDictionary
281
     1
  0
ACDBDICTIONARYWDFLT
  5
E
102
{ACAD_REACTORS
330
C
102
}
330
C
100
AcDbDictionary
281
     1
  3
Normal
350
F
100
AcDbDictionaryWithDefault
340
F
  0
DICTIONARY
  5
47
102
{ACAD_REACTORS
330
C
102
}
330
C
100
AcDbDictionary
281
     1
  3
A0
350
48
  3
A1
350
49
  3
A2
350
4A
  3
A3
350
4B
  3
A4
350
4C
  3
A5
350
4D
  3
A6
350
4E
  3
A7
350
4F
  3
A8
350
50
  3
A9
350
51
  3
B0
350
52
  3
B1
350
53
  3
B2
350
54
  3
B3
350
55
  3
B4
350
56
  3
B5
350
57
  3
B6
350
58
  3
B7
350
59
  3
B8
350
5A
  3
B9
350
5B
  3
C0
350
5C
  3
C1
350
5D
  3
C2
350
5E
  3
C3
350
5F
  3
C4
350
60
  3
C5
350
61
  3
C6
350
62
  3
C7
350
63
  3
C8
350
64
  3
C9
350
65
  3
D0
350
66
  3
D1
350
67
  3
D2
350
68
  0
LAYOUT
  5
1E
102
{ACAD_REACTORS
330
1A
102
}
330
1A
100
AcDbPlotSettings
  1

  2
none_device
  4

  6

 40
0.0
 41
0.0
 42
0.0
 43
0.0
 44
0.0
 45
0.0
 46
0.0
 47
0.0
 48
0.0
 49
0.0
140
0.0
141
0.0
142
1.0
143
1.0
 70
   688
 72
     1
 73
     0
 74
     5
  7

 75
    16
147
1.0
148
0.0
149
0.0
100
AcDbLayout
  1
Layout1
 70
     1
 71
     1
 10
0.0
 20
0.0
 11
420.0
 21
297.0
 12
0.0
 22
0.0
 32
0.0
 14
1.0000000000E+20
 24
1.0000000000E+20
 34
1.0000000000E+20
 15
-1.0000000000E+20
 25
-1.0000000000E+20
 35
-1.0000000000E+20
146
0.0
 13
0.0
 23
0.0
 33
0.0
 16
1.0
 26
0.0
 36
0.0
 17
0.0
 27
1.0
 37
0.0
 76
     0
330
1B
  0
LAYOUT
  5
26
102
{ACAD_REACTORS
330
1A
102
}
330
1A
100
AcDbPlotSettings
  1

  2
none_device
  4

  6

 40
0.0
 41
0.0
 42
0.0
 43
0.0
 44
0.0
 45
0.0
 46
0.0
 47
0.0
 48
0.0
 49
0.0
140
0.0
141
0.0
142
1.0
143
1.0
 70
   688
 72
     1
 73
     0
 74
     5
  7

 75
    16
147
1.0
148
0.0
149
0.0
100
AcDbLayout
  1
Layout2
 70
     1
 71
     2
 10
0.0
 20
0.0
 11
0.0
 21
0.0
 12
0.0
 22
0.0
 32
0.0
 14
0.0
 24
0.0
 34
0.0
 15
0.0
 25
0.0
 35
0.0
146
0.0
 13
0.0
 23
0.0
 33
0.0
 16
1.0
 26
0.0
 36
0.0
 17
0.0
 27
1.0
 37
0.0
 76
     0
330
23
  0
LAYOUT
  5
22
102
{ACAD_REACTORS
330
1A
102
}
330
1A
100
AcDbPlotSettings
  1

  2
none_device
  4
ANSI_A_(11.00_x_8.50_Inches)
  6

 40
6.35
 41
19.05
 42
6.35000508
 43
19.05000254
 44
279.4
 45
215.9
 46
133.34999746
 47
187.6020528701
 48
0.0
 49
0.0
140
0.0
141
0.0
142
0.0267993631
143
1.0
 70
  1696
 72
     0
 73
     0
 74
     0
  7

 75
     0
147
0.0179189148
148
-1300.4909072572
149
0.0
100
AcDbLayout
  1
Model
 70
     1
 71
     0
 10
0.0
 20
0.0
 11
420.0
 21
297.0
 12
0.0
 22
0.0
 32
0.0
 14
-118.0
 24
-302.0
 34
0.0
 15
118.0
 25
12.0
 35
0.0
146
0.0
 13
0.0
 23
0.0
 33
0.0
 16
1.0
 26
0.0
 36
0.0
 17
0.0
 27
1.0
 37
0.0
 76
     0
330
1F
331
29
  0
MLINESTYLE
  5
18
102
{ACAD_REACTORS
330
17
102
}
330
17
100
AcDbMlineStyle
  2
Standard
 70
     0
  3

 62
   256
 51
90.0
 52
90.0
 71
     2
 49
0.5
 62
   256
  6
BYLAYER
 49
-0.5
 62
   256
  6
BYLAYER
  0
ACDBPLACEHOLDER
  5
F
102
{ACAD_REACTORS
330
E
102
}
330
E
  0
SCALE
  5
48
102
{ACAD_REACTORS
330
47
102
}
330
47
100
AcDbScale
 70
     0
300
1:1
140
1.0
141
1.0
290
     1
  0
SCALE
  5
49
102
{ACAD_REACTORS
330
47
102
}
330
47
100
AcDbScale
 70
     0
300
1:2
140
1.0
141
2.0
290
     0
  0
SCALE
  5
4A
102
{ACAD_REACTORS
330
47
102
}
330
47
100
AcDbScale
 70
     0
300
1:4
140
1.0
141
4.0
290
     0
  0
SCALE
  5
4B
102
{ACAD_REACTORS
330
47
102
}
330
47
100
AcDbScale
 70
     0
300
1:5
140
1.0
141
5.0
290
     0
  0
SCALE
  5
4C
102
{ACAD_REACTORS
330
47
102
}
330
47
100
AcDbScale
 70
     0
300
1:8
140
1.0
141
8.0
290
     0
  0
SCALE
  5
4D
102
{ACAD_REACTORS
330
47
102
}
330
47
100
AcDbScale
 70
     0
300
1:10
140
1.0
141
10.0
290
     0
  0
SCALE
  5
4E
102
{ACAD_REACTORS
330
47
102
}
330
47
100
AcDbScale
 70
     0
300
1:16
140
1.0
141
16.0
290
     0
  0
SCALE
  5
4F
102
{ACAD_REACTORS
330
47
102
}
330
47
100
AcDbScale
 70
     0
300
1:20
140
1.0
141
20.0
290
     0
  0
SCALE
  5
50
102
{ACAD_REACTORS
330
47
102
}
330
47
100
AcDbScale
 70
     0
300
1:30
140
1.0
141
30.0
290
     0
  0
SCALE
  5
51
102
{ACAD_REACTORS
330
47
102
}
330
47
100
AcDbScale
 70
     0
300
1:40
140
1.0
141
40.0
290
     0
  0
SCALE
  5
52
102
{ACAD_REACTORS
330
47
102
}
330
47
100
AcDbScale
 70
     0
300
1:50
140
1.0
141
50.0
290
     0
  0
SCALE
  5
53
102
{ACAD_REACTORS
330
47
102
}
330
47
100
AcDbScale
 70
     0
300
1:100
140
1.0
141
100.0
290
     0
  0
SCALE
  5
54
102
{ACAD_REACTORS
330
47
102
}
330
47
100
AcDbScale
 70
     0
300
2:1
140
2.0
141
1.0
290
     0
  0
SCALE
  5
55
102
{ACAD_REACTORS
330
47
102
}
330
47
100
AcDbScale
 70
     0
300
4:1
140
4.0
141
1.0
290
     0
  0
SCALE
  5
56
102
{ACAD_REACTORS
330
47
102
}
330
47
100
AcDbScale
 70
     0
300
8:1
140
8.0
141
1.0
290
     0
  0
SCALE
  5
57
102
{ACAD_REACTORS
330
47
102
}
330
47
100
AcDbScale
 70
     0
300
10:1
140
10.0
141
1.0
290
     0
  0
SCALE
  5
58
102
{ACAD_REACTORS
330
47
102
}
330
47
100
AcDbScale
 70
     0
300
100:1
140
100.0
141
1.0
290
     0
  0
SCALE
  5
59
102
{ACAD_REACTORS
330
47
102
}
330
47
100
AcDbScale
 70
     0
300
1/128" = 1'-0"
140
0.0078125
141
12.0
290
     0
  0
SCALE
  5
5A
102
{ACAD_REACTORS
330
47
102
}
330
47
100
AcDbScale
 70
     0
300
1/64" = 1'-0"
140
0.015625
141
12.0
290
     0
  0
SCALE
  5
5B
102
{ACAD_REACTORS
330
47
102
}
330
47
100
AcDbScale
 70
     0
300
1/32" = 1'-0"
140
0.03125
141
12.0
290
     0
  0
SCALE
  5
5C
102
{ACAD_REACTORS
330
47
102
}
330
47
100
AcDbScale
 70
     0
300
1/16" = 1'-0"
140
0.0625
141
12.0
290
     0
  0
SCALE
  5
5D
102
{ACAD_REACTORS
330
47
102
}
330
47
100
AcDbScale
 70
     0
300
3/32" = 1'-0"
140
0.09375
141
12.0
290
     0
  0
SCALE
  5
5E
102
{ACAD_REACTORS
330
47
102
}
330
47
100
AcDbScale
 70
     0
300
1/8" = 1'-0"
140
0.125
141
12.0
290
     0
  0
SCALE
  5
5F
102
{ACAD_REACTORS
330
47
102
}
330
47
100
AcDbScale
 70
     0
300
3/16" = 1'-0"
140
0.1875
141
12.0
290
     0
  0
SCALE
  5
60
102
{ACAD_REACTORS
330
47
102
}
330
47
100
AcDbScale
 70
     0
300
1/4" = 1'-0"
140
0.25
141
12.0
290
     0
  0
SCALE
  5
61
102
{ACAD_REACTORS
330
47
102
}
330
47
100
AcDbScale
 70
     0
300
3/8" = 1'-0"
140
0.375
141
12.0
290
     0
  0
SCALE
  5
62
102
{ACAD_REACTORS
330
47
102
}
330
47
100
AcDbScale
 70
     0
300
1/2" = 1'-0"
140
0.5
141
12.0
290
     0
  0
SCALE
  5
63
102
{ACAD_REACTORS
330
47
102
}
330
47
100
AcDbScale
 70
     0
300
3/4" = 1'-0"
140
0.75
141
12.0
290
     0
  0
SCALE
  5
64
102
{ACAD_REACTORS
330
47
102
}
330
47
100
AcDbScale
 70
     0
300
1" = 1'-0"
140
1.0
141
12.0
290
     0
  0
SCALE
  5
65
102
{ACAD_REACTORS
330
47
102
}
330
47
100
AcDbScale
 70
     0
300
1-1/2" = 1'-0"
140
1.5
141
12.0
290
     0
  0
SCALE
  5
66
102
{ACAD_REACTORS
330
47
102
}
330
47
100
AcDbScale
 70
     0
300
3" = 1'-0"
140
3.0
141
12.0
290
     0
  0
SCALE
  5
67
102
{ACAD_REACTORS
330
47
102
}
330
47
100
AcDbScale
 70
     0
300
6" = 1'-0"
140
6.0
141
12.0
290
     0
  0
SCALE
  5
68
102
{ACAD_REACTORS
330
47
102
}
330
47
100
AcDbScale
 70
     0
300
1'-0" = 1'-0"
140
12.0
141
12.0
290
     0
  0
ENDSEC
  0
EOF
